<svg width="121" height="81" viewBox="0 0 121 81" fill="none" xmlns="http://www.w3.org/2000/svg">
<ellipse cx="60.5255" cy="47.159" rx="43.8618" ry="21.9309" fill="black"/>
<path fill-rule="evenodd" clip-rule="evenodd" d="M117.419 4.24872C115.677 9.07142 112.654 12.263 110.175 11.6265C107.87 11.0343 106.747 7.3117 107.244 2.7171C101.089 11.6638 101.967 21.9366 109.415 36.3358C114.63 29.009 118.154 19.4757 117.419 4.24872Z" fill="black"/>
<path d="M110.175 11.6265L110.8 9.19562L110.8 9.19562L110.175 11.6265ZM117.419 4.24872L115.059 3.39595C115.465 2.27084 116.609 1.58901 117.792 1.76687C118.975 1.94473 119.868 2.93283 119.926 4.12772L117.419 4.24872ZM107.244 2.7171L105.176 1.29455C105.828 0.347692 107.039 -0.0356722 108.117 0.363996C109.194 0.763665 109.863 1.84422 109.739 2.98688L107.244 2.7171ZM109.415 36.3358L111.46 37.7911C110.953 38.5039 110.111 38.901 109.238 38.8393C108.366 38.7776 107.588 38.266 107.186 37.4889L109.415 36.3358ZM97.9423 48.6604L99.6589 50.4912V50.4912L97.9423 48.6604ZM110.175 11.6265L110.8 9.19562C110.802 9.19612 110.805 9.19676 110.81 9.19714C110.816 9.19753 110.829 9.19788 110.851 9.1955C110.894 9.19072 110.98 9.17382 111.112 9.11685C111.388 8.99744 111.789 8.73395 112.273 8.23609C113.245 7.23588 114.273 5.57027 115.059 3.39595L117.419 4.24872L119.78 5.10149C118.823 7.74987 117.469 10.0914 115.873 11.7335C114.364 13.2872 112.105 14.7132 109.551 14.0573L110.175 11.6265ZM107.244 2.7171L109.739 2.98688C109.517 5.04605 109.679 6.75327 110.048 7.90585C110.232 8.47718 110.439 8.82845 110.6 9.02027C110.676 9.11168 110.733 9.15631 110.762 9.17583C110.789 9.19361 110.799 9.19557 110.8 9.19562L110.175 11.6265L109.551 14.0573C107.173 13.4465 105.887 11.3641 105.269 9.43953C104.626 7.43412 104.475 4.98275 104.749 2.44733L107.244 2.7171ZM107.244 2.7171L109.312 4.13965C106.557 8.14401 105.39 12.3858 105.732 17.3078C106.08 22.3138 107.998 28.1331 111.645 35.1828L109.415 36.3358L107.186 37.4889C103.385 30.1394 101.139 23.6227 100.725 17.6558C100.304 11.6049 101.776 6.23688 105.176 1.29455L107.244 2.7171ZM109.415 36.3358L107.371 34.8806C112.229 28.0547 115.623 19.0883 114.912 4.36971L117.419 4.24872L119.926 4.12772C120.685 19.8631 117.031 29.9633 111.46 37.7911L109.415 36.3358ZM93.1239 53.2766L91.3493 51.5019C92.9626 49.8887 94.6126 48.3419 96.2258 46.8295L97.9423 48.6604L99.6589 50.4912C98.0362 52.0127 96.4453 53.5046 94.8986 55.0513L93.1239 53.2766ZM97.9423 48.6604L96.2258 46.8295C100.32 42.9912 104.186 39.3558 107.371 34.8806L109.415 36.3358L111.46 37.7911C107.939 42.7388 103.701 46.7016 99.6589 50.4912L97.9423 48.6604Z" fill="black"/>
<path fill-rule="evenodd" clip-rule="evenodd" d="M3.09683 4.24872C4.83917 9.07142 7.86228 12.263 10.3407 11.6265C12.6464 11.0343 13.7687 7.3117 13.2719 2.7171C19.4273 11.6638 18.5486 21.9366 11.1006 36.3358C5.88609 29.009 2.36189 19.4757 3.09683 4.24872Z" fill="black"/>
<path d="M10.3407 11.6265L9.71637 9.19562L9.71637 9.19562L10.3407 11.6265ZM3.09683 4.24872L5.45725 3.39595C5.05078 2.27084 3.90669 1.58901 2.7237 1.76687C1.5407 1.94473 0.647683 2.93283 0.59001 4.12772L3.09683 4.24872ZM13.2719 2.7171L15.3396 1.29455C14.6881 0.347692 13.4768 -0.0356722 12.3992 0.363996C11.3216 0.763665 10.6532 1.84422 10.7767 2.98688L13.2719 2.7171ZM11.1006 36.3358L9.05581 37.7911C9.56308 38.5039 10.4049 38.901 11.2776 38.8393C12.1503 38.7776 12.9278 38.266 13.3298 37.4889L11.1006 36.3358ZM22.5737 48.6604L20.8571 50.4912V50.4912L22.5737 48.6604ZM10.3407 11.6265L9.71637 9.19562C9.71443 9.19612 9.71149 9.19676 9.70575 9.19714C9.69978 9.19753 9.68683 9.19788 9.66536 9.1955C9.62213 9.19072 9.53618 9.17382 9.40444 9.11685C9.1283 8.99744 8.72656 8.73395 8.24295 8.23609C7.27135 7.23588 6.24279 5.57027 5.45725 3.39595L3.09683 4.24872L0.736411 5.10149C1.69321 7.74987 3.04737 10.0914 4.64251 11.7335C6.15175 13.2872 8.41135 14.7132 10.965 14.0573L10.3407 11.6265ZM13.2719 2.7171L10.7767 2.98688C10.9994 5.04605 10.8374 6.75327 10.4675 7.90585C10.2842 8.47718 10.0768 8.82845 9.91634 9.02027C9.83987 9.11168 9.78308 9.15631 9.75389 9.17583C9.7273 9.19361 9.71658 9.19557 9.71637 9.19562L10.3407 11.6265L10.965 14.0573C13.3432 13.4465 14.6294 11.3641 15.247 9.43953C15.8905 7.43412 16.0413 4.98275 15.7671 2.44733L13.2719 2.7171ZM13.2719 2.7171L11.2043 4.13965C13.9593 8.14401 15.1259 12.3858 14.7838 17.3078C14.4359 22.3138 12.5179 28.1331 8.87138 35.1828L11.1006 36.3358L13.3298 37.4889C17.1313 30.1394 19.3766 23.6227 19.7912 17.6558C20.2117 11.6049 18.7399 6.23688 15.3396 1.29455L13.2719 2.7171ZM11.1006 36.3358L13.1453 34.8806C8.28734 28.0547 4.89325 19.0883 5.60366 4.36971L3.09683 4.24872L0.59001 4.12772C-0.169473 19.8631 3.48483 29.9633 9.05581 37.7911L11.1006 36.3358ZM27.3921 53.2766L29.1667 51.5019C27.5534 49.8887 25.9034 48.3419 24.2902 46.8295L22.5737 48.6604L20.8571 50.4912C22.4798 52.0127 24.0707 53.5046 25.6174 55.0513L27.3921 53.2766ZM22.5737 48.6604L24.2902 46.8295C20.1964 42.9912 16.3303 39.3558 13.1453 34.8806L11.1006 36.3358L9.05581 37.7911C12.5771 42.7388 16.8151 46.7016 20.8571 50.4912L22.5737 48.6604Z" fill="black"/>
<path d="M76.5981 11.0035C84.7149 11.0036 91.4321 17.3187 91.4321 25.274C91.432 33.2293 84.7148 39.5445 76.5981 39.5446C68.4815 39.5446 61.7643 33.2293 61.7642 25.274C61.7642 17.3187 68.4814 11.0035 76.5981 11.0035Z" fill="white" stroke="black" stroke-width="3.59754" stroke-miterlimit="10" stroke-linecap="round"/>
<path d="M44.2479 11.0035C52.3646 11.0036 59.0819 17.3187 59.0819 25.274C59.0818 33.2293 52.3646 39.5445 44.2479 39.5446C36.1312 39.5446 29.4141 33.2293 29.4139 25.274C29.4139 17.3187 36.1312 11.0035 44.2479 11.0035Z" fill="white" stroke="black" stroke-width="3.59754" stroke-miterlimit="10" stroke-linecap="round"/>
</svg>
