<svg width="84" height="49" viewBox="0 0 84 49" fill="none" xmlns="http://www.w3.org/2000/svg">
<ellipse cx="42.0245" cy="32.8663" rx="30.7032" ry="15.3516" fill="black"/>
<path fill-rule="evenodd" clip-rule="evenodd" d="M81.8501 2.82873C80.6305 6.20475 78.5143 8.43897 76.7793 7.99339C75.1653 7.57887 74.3798 4.97311 74.7274 1.75696C70.4188 8.0196 71.0339 15.2106 76.2475 25.2899C79.8977 20.1611 82.3646 13.4877 81.8501 2.82873Z" fill="black"/>
<path d="M76.7793 7.99339L77.2164 6.2918H77.2164L76.7793 7.99339ZM81.8501 2.82873L80.1978 2.23182C80.4823 1.44423 81.2832 0.96694 82.1113 1.09143C82.9394 1.21593 83.5645 1.9076 83.6049 2.74403L81.8501 2.82873ZM74.7274 1.75696L73.2801 0.761186C73.7361 0.0983804 74.584 -0.169983 75.3384 0.109778C76.0927 0.389539 76.5606 1.14593 76.4741 1.94579L74.7274 1.75696ZM76.2475 25.2899L77.6788 26.3086C77.3238 26.8075 76.7345 27.0856 76.1236 27.0424C75.5127 26.9992 74.9684 26.641 74.6871 26.0971L76.2475 25.2899ZM68.2163 33.9171L69.418 35.1987L68.2163 33.9171ZM76.7793 7.99339L77.2164 6.2918C77.2177 6.29214 77.2198 6.29259 77.2238 6.29286C77.228 6.29313 77.237 6.29338 77.2521 6.29171C77.2823 6.28836 77.3425 6.27654 77.4347 6.23665C77.628 6.15305 77.9093 5.9686 78.2478 5.62008C78.9279 4.91989 79.6479 3.75391 80.1978 2.23182L81.8501 2.82873L83.5024 3.42564C82.8327 5.27958 81.8847 6.91872 80.7681 8.06825C79.7117 9.15586 78.1299 10.1541 76.3423 9.69499L76.7793 7.99339ZM74.7274 1.75696L76.4741 1.94579C76.3183 3.38718 76.4317 4.5822 76.6906 5.38898C76.8189 5.7889 76.964 6.03478 77.0764 6.16905C77.1299 6.23304 77.1697 6.26428 77.1901 6.27794C77.2087 6.29039 77.2162 6.29176 77.2164 6.2918L76.7793 7.99339L76.3423 9.69499C74.6776 9.26743 73.7773 7.80973 73.345 6.46259C72.8945 5.05883 72.7889 3.3429 72.9808 1.56813L74.7274 1.75696ZM74.7274 1.75696L76.1748 2.75273C74.2463 5.55576 73.4298 8.52499 73.6692 11.9704C73.9128 15.4746 75.2554 19.548 77.8079 24.4828L76.2475 25.2899L74.6871 26.0971C72.026 20.9525 70.4543 16.3908 70.1641 12.214C69.8697 7.97837 70.8999 4.2208 73.2801 0.761186L74.7274 1.75696ZM76.2475 25.2899L74.8162 24.2712C78.2168 19.4931 80.5927 13.2166 80.0953 2.91343L81.8501 2.82873L83.6049 2.74403C84.1366 13.7589 81.5786 20.8291 77.6788 26.3086L76.2475 25.2899ZM64.8435 37.1485L63.6012 35.9062C64.7305 34.7769 65.8855 33.6942 67.0147 32.6355L68.2163 33.9171L69.418 35.1987C68.282 36.2637 67.1684 37.308 66.0857 38.3907L64.8435 37.1485ZM68.2163 33.9171L67.0147 32.6355C69.8804 29.9487 72.5867 27.4039 74.8162 24.2712L76.2475 25.2899L77.6788 26.3086C75.214 29.772 72.2473 32.5459 69.418 35.1987L68.2163 33.9171Z" fill="black"/>
<path fill-rule="evenodd" clip-rule="evenodd" d="M1.82454 2.82873C3.04416 6.20475 5.16039 8.43897 6.89532 7.99339C8.50932 7.57887 9.2949 4.97311 8.9472 1.75696C13.2559 8.0196 12.6407 15.2106 7.42714 25.2899C3.77698 20.1611 1.31003 13.4877 1.82454 2.82873Z" fill="black"/>
<path d="M6.89532 7.99339L6.4583 6.29179H6.4583L6.89532 7.99339ZM1.82454 2.82873L3.47684 2.23182C3.19232 1.44423 2.39146 0.966936 1.56336 1.09143C0.735259 1.21592 0.110136 1.90759 0.0697615 2.74402L1.82454 2.82873ZM8.9472 1.75696L10.3946 0.761186C9.93856 0.0983806 9.0906 -0.169983 8.33629 0.109778C7.58198 0.389539 7.11409 1.14593 7.20056 1.94579L8.9472 1.75696ZM7.42714 25.2899L5.99581 26.3086C6.3509 26.8075 6.94018 27.0856 7.55105 27.0424C8.16192 26.9992 8.70622 26.641 8.98757 26.0971L7.42714 25.2899ZM15.4583 33.9171L14.2567 35.1987L15.4583 33.9171ZM6.89532 7.99339L6.4583 6.29179C6.45694 6.29214 6.45488 6.29259 6.45086 6.29286C6.44669 6.29313 6.43762 6.29338 6.42259 6.29171C6.39232 6.28836 6.33216 6.27653 6.23993 6.23665C6.04662 6.15305 5.7654 5.96859 5.42686 5.62007C4.74672 4.91988 4.02671 3.7539 3.47684 2.23182L1.82454 2.82873L0.172233 3.42564C0.841984 5.27957 1.7899 6.91871 2.90652 8.06824C3.96299 9.15586 5.54475 10.1541 7.33234 9.69498L6.89532 7.99339ZM8.9472 1.75696L7.20056 1.94579C7.35639 3.38718 7.243 4.5822 6.9841 5.38898C6.85576 5.7889 6.71061 6.03478 6.59827 6.16905C6.54474 6.23304 6.50499 6.26428 6.48456 6.27794C6.46595 6.29038 6.45844 6.29176 6.4583 6.29179L6.89532 7.99339L7.33234 9.69498C8.99707 9.26743 9.8974 7.80973 10.3297 6.46259C10.7802 5.05883 10.8857 3.3429 10.6938 1.56813L8.9472 1.75696ZM8.9472 1.75696L7.49984 2.75273C9.4283 5.55575 10.2449 8.52499 10.0054 11.9704C9.76188 15.4746 8.41922 19.548 5.86671 24.4828L7.42714 25.2899L8.98757 26.0971C11.6486 20.9525 13.2203 16.3908 13.5106 12.214C13.805 7.97837 12.7748 4.2208 10.3946 0.761186L8.9472 1.75696ZM7.42714 25.2899L8.85848 24.2712C5.45786 19.4931 3.08199 13.2166 3.57931 2.91343L1.82454 2.82873L0.0697615 2.74402C-0.46192 13.7589 2.0961 20.8291 5.99581 26.3086L7.42714 25.2899ZM18.8312 37.1485L20.0734 35.9062C18.9441 34.7769 17.7891 33.6942 16.6599 32.6355L15.4583 33.9171L14.2567 35.1987C15.3926 36.2637 16.5062 37.308 17.5889 38.3907L18.8312 37.1485ZM15.4583 33.9171L16.6599 32.6355C13.7942 29.9487 11.088 27.4039 8.85848 24.2712L7.42714 25.2899L5.99581 26.3086C8.46069 29.772 11.4273 32.5459 14.2567 35.1987L15.4583 33.9171Z" fill="black"/>
</svg>
