<svg width="1428" height="558" viewBox="0 0 1428 558" fill="none" xmlns="http://www.w3.org/2000/svg">
<rect x="469" width="395" height="161" rx="4" fill="#F8F8FF"/>
<path d="M129 82.5C129 36.9365 165.937 0 211.5 0V0C257.063 0 294 36.9365 294 82.5V156C294 158.761 291.761 161 289 161H134C131.239 161 129 158.761 129 156V82.5Z" fill="#F8F8FF"/>
<path d="M299 82.5C299 36.9365 335.937 0 381.5 0V0C427.063 0 464 36.9365 464 82.5V156C464 158.761 461.761 161 459 161H304C301.239 161 299 158.761 299 156V82.5Z" fill="#F8F8FF"/>
<g filter="url(#filter0_d_2262_43)">
<path d="M106.56 541.347L4.74922 172.831C3.86945 169.647 6.26496 166.5 9.56867 166.5H1001.49C1002.78 166.5 1004.02 166.003 1004.95 165.114L1093.55 80.3864C1094.48 79.4966 1095.72 79 1097.01 79H1418.62C1422.02 79 1424.43 82.311 1423.38 85.5407L1274.13 546.349C1273.45 548.418 1271.52 549.817 1269.35 549.808L111.359 545.016C109.118 545.006 107.157 543.507 106.56 541.347Z" fill="#F8F8FF"/>
<path d="M1097.01 79.5H1418.62C1421.68 79.5002 1423.85 82.4801 1422.91 85.3867L1273.65 546.194C1273.05 548.057 1271.31 549.316 1269.35 549.308L111.361 544.516C109.344 544.507 107.579 543.158 107.042 541.214L5.23145 172.698C4.4397 169.832 6.59519 167 9.56836 167H1001.49C1002.91 167 1004.27 166.453 1005.29 165.475L1093.9 80.748C1094.73 79.9473 1095.85 79.5 1097.01 79.5Z" stroke="white"/>
<path d="M1097.01 79.5H1418.62C1421.68 79.5002 1423.85 82.4801 1422.91 85.3867L1273.65 546.194C1273.05 548.057 1271.31 549.316 1269.35 549.308L111.361 544.516C109.344 544.507 107.579 543.158 107.042 541.214L5.23145 172.698C4.4397 169.832 6.59519 167 9.56836 167H1001.49C1002.91 167 1004.27 166.453 1005.29 165.475L1093.9 80.748C1094.73 79.9473 1095.85 79.5 1097.01 79.5Z" stroke="black" stroke-opacity="0.2"/>
<path d="M1097.01 79.5H1418.62C1421.68 79.5002 1423.85 82.4801 1422.91 85.3867L1273.65 546.194C1273.05 548.057 1271.31 549.316 1269.35 549.308L111.361 544.516C109.344 544.507 107.579 543.158 107.042 541.214L5.23145 172.698C4.4397 169.832 6.59519 167 9.56836 167H1001.49C1002.91 167 1004.27 166.453 1005.29 165.475L1093.9 80.748C1094.73 79.9473 1095.85 79.5 1097.01 79.5Z" stroke="black" stroke-opacity="0.2"/>
<path d="M1097.01 79.5H1418.62C1421.68 79.5002 1423.85 82.4801 1422.91 85.3867L1273.65 546.194C1273.05 548.057 1271.31 549.316 1269.35 549.308L111.361 544.516C109.344 544.507 107.579 543.158 107.042 541.214L5.23145 172.698C4.4397 169.832 6.59519 167 9.56836 167H1001.49C1002.91 167 1004.27 166.453 1005.29 165.475L1093.9 80.748C1094.73 79.9473 1095.85 79.5 1097.01 79.5Z" stroke="black" stroke-opacity="0.2"/>
</g>
<defs>
<filter id="filter0_d_2262_43" x="0.565788" y="79" width="1427.06" height="478.808" filterUnits="userSpaceOnUse" color-interpolation-filters="sRGB">
<feFlood flood-opacity="0" result="BackgroundImageFix"/>
<feColorMatrix in="SourceAlpha" type="matrix" values="0 0 0 0 0 0 0 0 0 0 0 0 0 0 0 0 0 0 127 0" result="hardAlpha"/>
<feOffset dy="4"/>
<feGaussianBlur stdDeviation="2"/>
<feComposite in2="hardAlpha" operator="out"/>
<feColorMatrix type="matrix" values="0 0 0 0 0 0 0 0 0 0 0 0 0 0 0 0 0 0 0.25 0"/>
<feBlend mode="normal" in2="BackgroundImageFix" result="effect1_dropShadow_2262_43"/>
<feBlend mode="normal" in="SourceGraphic" in2="effect1_dropShadow_2262_43" result="shape"/>
</filter>
</defs>
</svg>
