<svg width="292" height="166" viewBox="0 0 292 166" fill="none" xmlns="http://www.w3.org/2000/svg">
<path d="M145.735 0C65.2478 0 0 30.9223 0 69.0664C0.000518799 107.21 65.2482 138.132 145.735 138.132C166.804 138.132 186.827 136.012 204.91 132.199C220.234 149.578 242.666 165.956 262.404 165.956C238.136 154.358 239.005 137.638 241.986 120.925C272.326 108.268 291.47 89.7275 291.471 69.0664C291.471 30.9224 226.223 3.90919e-05 145.735 0Z" fill="black"/>
<path d="M74.9051 77V58.0909H78.3305V74.1286H86.6586V77H74.9051ZM95.7623 77.277C94.3405 77.277 93.1125 76.9815 92.0784 76.3906C91.0505 75.7936 90.2595 74.9503 89.7055 73.8608C89.1515 72.7652 88.8746 71.4756 88.8746 69.9922C88.8746 68.5334 89.1515 67.2531 89.7055 66.1513C90.2657 65.0433 91.0474 64.1816 92.0507 63.5661C93.054 62.9444 94.2327 62.6335 95.5869 62.6335C96.461 62.6335 97.2858 62.7751 98.0613 63.0582C98.8431 63.3352 99.5325 63.7661 100.13 64.3509C100.733 64.9356 101.207 65.6804 101.551 66.5852C101.896 67.4839 102.068 68.5549 102.068 69.7983V70.8232H90.4442V68.5703H98.8646C98.8585 67.9302 98.72 67.3608 98.4491 66.8622C98.1783 66.3575 97.7997 65.9605 97.3135 65.6712C96.8334 65.3819 96.2732 65.2372 95.6331 65.2372C94.9498 65.2372 94.3497 65.4034 93.8327 65.7358C93.3156 66.062 92.9124 66.4929 92.6231 67.0284C92.34 67.5578 92.1953 68.1394 92.1892 68.7734V70.7401C92.1892 71.5649 92.34 72.2727 92.6416 72.8636C92.9432 73.4484 93.3648 73.8977 93.9065 74.2116C94.4482 74.5194 95.0822 74.6733 95.8085 74.6733C96.2948 74.6733 96.7349 74.6056 97.1288 74.4702C97.5228 74.3286 97.8644 74.1224 98.1537 73.8516C98.443 73.5807 98.6615 73.2453 98.8092 72.8452L101.93 73.196C101.733 74.0208 101.358 74.741 100.804 75.3565C100.256 75.9659 99.554 76.4399 98.6984 76.7784C97.8428 77.1108 96.8641 77.277 95.7623 77.277ZM111.978 62.8182V65.4034H103.825V62.8182H111.978ZM105.838 59.4205H109.18V72.7344C109.18 73.1837 109.248 73.5284 109.383 73.7685C109.525 74.0024 109.709 74.1624 109.937 74.2486C110.165 74.3348 110.417 74.3778 110.694 74.3778C110.904 74.3778 111.094 74.3625 111.267 74.3317C111.445 74.3009 111.581 74.2732 111.673 74.2486L112.236 76.8615C112.058 76.9231 111.802 76.9908 111.47 77.0646C111.144 77.1385 110.744 77.1816 110.27 77.1939C109.432 77.2185 108.678 77.0923 108.008 76.8153C107.337 76.5322 106.804 76.0952 106.41 75.5043C106.022 74.9134 105.832 74.1747 105.838 73.2884V59.4205ZM118.268 58.0909V59.9744C118.268 60.5161 118.163 61.0793 117.954 61.6641C117.751 62.2427 117.471 62.7966 117.114 63.326C116.757 63.8492 116.35 64.2985 115.895 64.674L114.344 63.6676C114.682 63.1567 114.978 62.6058 115.23 62.0149C115.482 61.4178 115.609 60.7438 115.609 59.9929V58.0909H118.268ZM130.349 66.5668L127.302 66.8991C127.216 66.5914 127.065 66.3021 126.85 66.0312C126.64 65.7604 126.357 65.5419 126 65.3757C125.643 65.2095 125.206 65.1264 124.689 65.1264C123.994 65.1264 123.409 65.2772 122.935 65.5788C122.467 65.8804 122.236 66.2713 122.242 66.7514C122.236 67.1638 122.387 67.4993 122.695 67.7578C123.009 68.0163 123.526 68.2287 124.246 68.3949L126.665 68.9119C128.007 69.2012 129.004 69.6598 129.657 70.2876C130.315 70.9155 130.648 71.7372 130.654 72.7528C130.648 73.6454 130.386 74.4332 129.869 75.1165C129.358 75.7936 128.647 76.3229 127.736 76.7045C126.825 77.0862 125.779 77.277 124.597 77.277C122.861 77.277 121.464 76.9138 120.405 76.1875C119.346 75.455 118.715 74.4363 118.512 73.1314L121.772 72.8175C121.919 73.4576 122.233 73.9408 122.713 74.267C123.193 74.5933 123.818 74.7564 124.588 74.7564C125.382 74.7564 126.019 74.5933 126.499 74.267C126.985 73.9408 127.228 73.5376 127.228 73.0575C127.228 72.6513 127.071 72.3158 126.757 72.0511C126.45 71.7865 125.969 71.5833 125.317 71.4418L122.898 70.9339C121.538 70.6508 120.531 70.1738 119.879 69.5028C119.226 68.8258 118.903 67.9702 118.909 66.9361C118.903 66.062 119.14 65.3049 119.62 64.6648C120.107 64.0185 120.781 63.5199 121.642 63.169C122.51 62.812 123.51 62.6335 124.643 62.6335C126.305 62.6335 127.613 62.9875 128.567 63.6953C129.527 64.4032 130.121 65.3603 130.349 66.5668ZM139.176 60.9624V58.0909H154.262V60.9624H148.418V77H145.02V60.9624H139.176ZM159.174 77.2862C158.276 77.2862 157.466 77.1262 156.746 76.8061C156.032 76.4799 155.466 75.9998 155.047 75.3658C154.635 74.7318 154.429 73.95 154.429 73.0206C154.429 72.2204 154.576 71.5587 154.872 71.0355C155.167 70.5123 155.57 70.0938 156.081 69.7798C156.592 69.4659 157.168 69.2289 157.808 69.0689C158.454 68.9027 159.122 68.7827 159.811 68.7088C160.642 68.6226 161.316 68.5457 161.833 68.478C162.35 68.4041 162.726 68.2933 162.96 68.1456C163.2 67.9917 163.32 67.7547 163.32 67.4347V67.3793C163.32 66.6837 163.114 66.1451 162.701 65.7635C162.289 65.3819 161.695 65.1911 160.919 65.1911C160.101 65.1911 159.451 65.3696 158.971 65.7266C158.497 66.0836 158.177 66.5052 158.011 66.9915L154.89 66.5483C155.136 65.6866 155.543 64.9664 156.109 64.3878C156.675 63.803 157.368 63.366 158.186 63.0767C159.005 62.7812 159.91 62.6335 160.901 62.6335C161.584 62.6335 162.264 62.7135 162.941 62.8736C163.618 63.0336 164.237 63.2983 164.797 63.6676C165.357 64.0308 165.807 64.5263 166.145 65.1541C166.49 65.782 166.662 66.5668 166.662 67.5085V77H163.449V75.0518H163.338C163.135 75.4458 162.849 75.8151 162.48 76.1598C162.117 76.4983 161.658 76.7723 161.104 76.9815C160.556 77.1847 159.913 77.2862 159.174 77.2862ZM160.042 74.8303C160.713 74.8303 161.295 74.6979 161.787 74.4332C162.28 74.1624 162.658 73.8054 162.923 73.3622C163.194 72.919 163.329 72.4358 163.329 71.9126V70.2415C163.224 70.3277 163.046 70.4077 162.794 70.4815C162.547 70.5554 162.27 70.62 161.963 70.6754C161.655 70.7308 161.35 70.7801 161.049 70.8232C160.747 70.8662 160.485 70.9032 160.264 70.9339C159.765 71.0017 159.319 71.1125 158.925 71.2663C158.531 71.4202 158.22 71.6357 157.992 71.9126C157.765 72.1835 157.651 72.5343 157.651 72.9652C157.651 73.5807 157.876 74.0455 158.325 74.3594C158.774 74.6733 159.347 74.8303 160.042 74.8303ZM173.365 58.0909V77H170.023V58.0909H173.365ZM179.849 72.5497L179.84 68.5149H180.375L185.472 62.8182H189.378L183.108 69.7983H182.416L179.849 72.5497ZM176.802 77V58.0909H180.145V77H176.802ZM185.703 77L181.086 70.5462L183.339 68.1918L189.701 77H185.703ZM200.113 77.2031C199.553 77.2031 199.073 77.0062 198.673 76.6122C198.273 76.2183 198.076 75.7382 198.082 75.1719C198.076 74.6179 198.273 74.1439 198.673 73.75C199.073 73.3561 199.553 73.1591 200.113 73.1591C200.655 73.1591 201.126 73.3561 201.526 73.75C201.932 74.1439 202.138 74.6179 202.144 75.1719C202.138 75.5473 202.04 75.889 201.849 76.1967C201.664 76.5045 201.418 76.7507 201.11 76.9354C200.809 77.1139 200.476 77.2031 200.113 77.2031ZM207.654 77.2031C207.094 77.2031 206.614 77.0062 206.214 76.6122C205.814 76.2183 205.617 75.7382 205.623 75.1719C205.617 74.6179 205.814 74.1439 206.214 73.75C206.614 73.3561 207.094 73.1591 207.654 73.1591C208.196 73.1591 208.667 73.3561 209.067 73.75C209.473 74.1439 209.679 74.6179 209.685 75.1719C209.679 75.5473 209.581 75.889 209.39 76.1967C209.205 76.5045 208.959 76.7507 208.651 76.9354C208.35 77.1139 208.017 77.2031 207.654 77.2031ZM215.195 77.2031C214.635 77.2031 214.155 77.0062 213.755 76.6122C213.355 76.2183 213.158 75.7382 213.164 75.1719C213.158 74.6179 213.355 74.1439 213.755 73.75C214.155 73.3561 214.635 73.1591 215.195 73.1591C215.737 73.1591 216.208 73.3561 216.608 73.75C217.014 74.1439 217.22 74.6179 217.226 75.1719C217.22 75.5473 217.122 75.889 216.931 76.1967C216.746 76.5045 216.5 76.7507 216.192 76.9354C215.891 77.1139 215.558 77.2031 215.195 77.2031Z" fill="white"/>
</svg>
