<svg width="476" height="295" viewBox="0 0 476 295" fill="none" xmlns="http://www.w3.org/2000/svg">
<path d="M7.94936 170.329C11.3122 161.557 17.63 151.804 21.7799 146.228C34.6911 128.88 76.1829 78.9657 76.1829 78.9657C117.85 27.6564 177.923 2 237.996 2C298.07 2 358.146 27.6564 399.814 78.9693C399.814 78.9693 441.309 128.884 454.216 146.232C458.366 151.808 464.688 161.557 468.051 170.329C471.893 180.354 474 191.234 474 202.603C474 252.528 433.413 293 383.346 293C353.603 293 327.201 278.716 310.673 256.649C294.142 278.713 267.743 293 238 293C208.257 293 181.858 278.716 165.327 256.649C148.795 278.713 122.397 293 92.6537 293C42.5866 293 1.99999 252.528 1.99999 202.603C1.99999 191.234 4.10713 180.354 7.94936 170.329Z" fill="#19417B" stroke="#19417B" stroke-width="4" stroke-miterlimit="10" stroke-linecap="round"/>
</svg>
