<svg width="67" height="72" viewBox="0 0 67 72" fill="none" xmlns="http://www.w3.org/2000/svg">
<path d="M56.2252 31.242C56.3424 31.2009 56.4427 31.1654 56.5223 31.136C60.7006 29.5898 67.702 26.9898 66.7178 21.3357C65.9572 16.9656 60.8773 15.5188 57.248 17.3243C55.7472 18.0708 53.9843 19.4062 52.0983 20.7885C48.4377 23.4711 44.313 26.3302 40.74 25.4037C37.0222 24.4397 40.3484 15.7535 40.5928 13.0715C41.0689 7.84672 38.6212 -0.85201 31.7249 0.0674231C27.5231 0.627665 27.2227 5.17771 27.493 8.50895C27.855 12.9693 29.5718 17.2871 29.943 21.7824C30.0368 22.918 30.5172 26.0527 29.0728 26.6573C26.4374 27.7597 22.3158 15.4792 19.2524 20.4905C18.0126 22.5219 22.3688 25.8846 23.2622 27.3963C23.7503 28.2223 24.5729 29.6172 23.493 30.3849C21.9936 31.4507 17.7174 27.134 16.4118 26.2247C14.2989 24.753 11.9947 23.4596 9.46384 22.9849C6.9332 22.5102 4.13272 22.953 2.17899 24.6299C-2.5784 28.7131 1.20194 34.1032 6.36057 34.7038C10.2556 35.1574 13.7375 34.0497 17.6711 34.8862C20.3554 35.4571 15.0363 37.0677 14.5432 37.2159C13.2513 37.604 11.9121 38.2115 11.2462 39.3847C10.5804 40.5579 11.0069 42.3896 12.3174 42.709C12.9593 42.8653 13.6284 42.6371 14.2335 42.3724C15.3398 41.8882 19.9809 39.0527 20.339 41.558C20.8056 44.8227 15.4133 45.79 13.2736 46.681C9.69602 48.1705 6.42416 50.3944 3.73123 53.183C2.40604 54.5555 -0.0285337 58.4205 1.61581 60.2547C2.22409 60.9332 3.19528 61.2044 4.10373 61.1319C7.06784 60.8955 10.1217 58.1975 12.4252 56.5398C15.1466 54.5812 17.805 52.5133 20.7706 50.9275C24.7211 48.8149 24.289 51.4168 22.8888 54.4804C21.8152 56.8292 20.9297 59.8437 22.5594 62.1531C24.1837 64.4549 27.6395 65.0689 30.1727 64.0964C32.5189 63.1955 33.6247 61.3387 34.4669 59.122C35.0702 57.5344 36.2827 53.7844 38.1901 56.5492C39.6094 58.6065 39.7967 61.5508 40.6035 63.8724C41.051 65.1602 41.5724 66.8426 42.6741 67.7444C44.0456 68.867 46.1588 68.7502 46.4831 66.6274C46.997 63.252 40.6798 55.6799 43.6805 52.8308C45.5894 51.0185 47.5642 54.3513 48.494 55.5425C51.602 59.5234 56.5341 57.5322 59.4865 54.5662C60.6623 53.3851 61.7769 52.0306 62.1188 50.3992C62.529 48.4411 61.7414 47.2928 60.4874 46.5252C58.2663 45.1656 57.3467 42.5666 57.6098 39.9757C57.8129 37.977 56.5851 36.2857 53.2621 36.3332C52.5428 36.3435 51.7602 36.245 51.2462 35.7418C49.1242 33.6647 54.5061 31.8446 56.2252 31.242Z" fill="black"/>
<path d="M16.0105 18.2427C16.7249 18.7646 17.5988 19.0337 18.3812 18.8145C20.5494 18.2068 19.8671 14.437 17.9786 13.4828C16.4168 12.6937 14.6361 13.9852 14.5625 15.667C14.5208 16.6182 15.1498 17.6139 16.0105 18.2427Z" fill="black"/>
<path d="M26.0122 66.586C24.8499 65.7841 23.2141 65.3736 22.1624 65.4129C18.3487 65.5555 17.4915 70.1439 21.3092 71.2581C22.7392 71.6755 24.6425 71.5152 25.9531 70.7895C27.8057 69.7638 27.6444 67.712 26.0122 66.586Z" fill="black"/>
</svg>
