<svg width="68" height="72" viewBox="0 0 68 72" fill="none" xmlns="http://www.w3.org/2000/svg">
<path d="M32.3853 0.821045C33.9937 0.606602 35.3203 0.95258 36.4106 1.65503C37.5096 2.36316 38.3953 3.45065 39.0747 4.75366C40.4384 7.36919 40.9197 10.7522 40.689 13.2839C40.632 13.9089 40.3911 14.9088 40.0981 16.1355C39.8106 17.3396 39.4831 18.7268 39.2808 20.0642C39.0799 21.3923 38.9932 22.7255 39.2192 23.8074C39.4492 24.908 40.0298 25.8395 41.2085 26.1453C43.1637 26.6523 45.2199 26.1118 47.1978 25.157C49.1799 24.2001 51.1605 22.7881 52.9878 21.449C54.8944 20.0515 56.613 18.7513 58.0649 18.0291C59.7545 17.1887 61.7874 17.1062 63.4771 17.74C65.1543 18.3692 66.4742 19.6934 66.8198 21.6794C67.2648 24.237 65.932 26.1331 63.8579 27.6287C61.773 29.132 59.0442 30.147 56.9429 30.9246C56.8678 30.9524 56.771 30.987 56.6538 31.0281C55.8086 31.3243 53.9786 31.9464 52.6294 32.7693C51.9665 33.1736 51.332 33.6774 51.0327 34.2839C50.8756 34.6025 50.8059 34.9605 50.8853 35.3376C50.9538 35.6629 51.1248 35.9635 51.3774 36.24L51.4907 36.3562C52.1593 37.0107 53.1275 37.1011 53.8638 37.0906C55.4467 37.068 56.4368 37.461 57.0063 38.0056C57.5676 38.5425 57.7961 39.2997 57.7065 40.1824C57.4296 42.9094 58.3935 45.7228 60.8208 47.2087C61.3946 47.56 61.8227 47.9751 62.0708 48.49C62.3163 48.9998 62.4113 49.661 62.2241 50.5544C61.914 52.034 60.8916 53.3005 59.7261 54.4714C58.2987 55.9053 56.4145 57.0783 54.5513 57.4255C52.7214 57.7665 50.9074 57.3178 49.4819 55.4919C49.062 54.9539 48.2744 53.7393 47.3813 52.9441C46.9277 52.5401 46.3864 52.1851 45.7817 52.0867C45.1419 51.9825 44.5071 52.1776 43.9302 52.7253C43.0126 53.5966 42.8511 54.8019 43.0239 56.0408C43.1962 57.2753 43.7127 58.6472 44.2837 59.9851C44.8674 61.3527 45.4971 62.6641 45.9673 63.8855C46.4413 65.1169 46.6889 66.11 46.5825 66.8093C46.4493 67.6816 45.9827 68.0624 45.4634 68.1707C44.8984 68.2883 44.1777 68.0997 43.5854 67.615C43.1184 67.2327 42.7512 66.6636 42.4409 65.9988C42.1307 65.3339 41.8988 64.6229 41.6704 63.9656C41.2762 62.8312 41.0416 61.5735 40.7056 60.2468C40.3778 58.9528 39.9586 57.629 39.1958 56.5232C38.6925 55.7937 38.1346 55.3393 37.4985 55.3191C36.861 55.2989 36.3764 55.7216 36.0396 56.1531C35.6908 56.5999 35.4025 57.1788 35.1694 57.7214C34.9356 58.266 34.74 58.8184 34.5942 59.2019C33.769 61.3738 32.7327 63.0637 30.5874 63.8875C28.2123 64.7991 25.0229 64.1926 23.562 62.1228C22.838 61.0968 22.6587 59.899 22.8013 58.6453C22.9446 57.3853 23.4105 56.1 23.938 54.946C24.2936 54.1679 24.5951 53.4034 24.7808 52.7253C24.9607 52.0682 25.0555 51.4102 24.9126 50.8884C24.8368 50.6118 24.6881 50.3518 24.4331 50.1677C24.1809 49.9858 23.8758 49.9143 23.5542 49.9177C22.9346 49.9244 22.1312 50.2082 21.1294 50.7439C18.1256 52.3502 15.4273 54.448 12.7271 56.3914C11.5393 57.2461 10.2462 58.3023 8.83643 59.2058C7.43424 60.1044 6.01511 60.7831 4.65869 60.8914H4.65771C3.85817 60.955 3.05877 60.7096 2.58252 60.1785C2.27948 59.8404 2.14545 59.3927 2.16064 58.8406C2.17606 58.282 2.34468 57.6464 2.61572 56.9949C3.09094 55.8528 3.84268 54.7476 4.43994 54.0574L4.68506 53.7878C7.33015 51.0488 10.545 48.8637 14.0601 47.4001C14.5728 47.1867 15.2786 46.9689 16.0981 46.6951C16.9006 46.427 17.7872 46.1125 18.5972 45.7166C19.4025 45.3228 20.1711 44.8303 20.7095 44.1892C21.2617 43.5316 21.5676 42.72 21.4282 41.7449C21.3716 41.3485 21.2216 41.0096 20.9644 40.7556C20.7086 40.5031 20.3877 40.3753 20.061 40.324C19.4321 40.2253 18.6866 40.3957 18.0005 40.6287C17.2972 40.8675 16.5781 41.2002 15.9761 41.4978C15.3498 41.8074 14.8917 42.0559 14.6274 42.1716C14.0245 42.4354 13.4944 42.5943 13.0298 42.4812C12.5968 42.3756 12.2677 42.0115 12.1147 41.4851C11.9611 40.9562 12.0158 40.3463 12.2749 39.8894C12.8379 38.8975 14.0061 38.3351 15.2817 37.9519C15.5265 37.8783 17.0115 37.4302 18.104 36.9207C18.379 36.7924 18.643 36.6542 18.8608 36.5105C19.0623 36.3776 19.2901 36.1986 19.4165 35.9695C19.4858 35.8439 19.5398 35.6749 19.5103 35.4822C19.4802 35.2866 19.3745 35.1358 19.2554 35.0291C19.0413 34.8374 18.7188 34.7293 18.3696 34.655C16.331 34.2215 14.4174 34.294 12.564 34.4099C10.6961 34.5268 8.9046 34.685 7.01221 34.4646C4.57612 34.1808 2.4995 32.7673 1.59033 31.0017C1.13939 30.1259 0.976181 29.1679 1.18311 28.2048C1.39013 27.2414 1.97693 26.2295 3.09912 25.2664C4.9073 23.7147 7.54037 23.2791 9.96631 23.7341C12.3935 24.1895 14.6282 25.4353 16.7202 26.8923C17.0212 27.102 17.5074 27.5196 18.1284 28.0466C18.7363 28.5625 19.4516 29.1637 20.1753 29.7039C20.8939 30.2402 21.6483 30.7372 22.3364 31.03C22.9865 31.3066 23.7684 31.4817 24.3765 31.0496C24.7369 30.7934 24.9596 30.466 25.0581 30.0964C25.1535 29.7386 25.1242 29.3773 25.0464 29.0535C24.8941 28.4197 24.5228 27.7988 24.2866 27.3992C24.0308 26.9664 23.5495 26.4315 23.0464 25.8845C22.5255 25.3181 21.9497 24.7068 21.439 24.0798C20.9255 23.4495 20.5088 22.839 20.2896 22.2869C20.0989 21.8067 20.08 21.4332 20.2095 21.1326L20.2729 21.0085C20.6238 20.4346 20.9458 20.1835 21.2075 20.0906C21.4551 20.0027 21.734 20.0271 22.0796 20.2C22.4346 20.3776 22.8241 20.6966 23.2446 21.1345C23.6616 21.5688 24.0868 22.0961 24.5181 22.6667C25.3625 23.7841 26.256 25.1069 27.0757 26.0417C27.4886 26.5127 27.9196 26.93 28.3589 27.1912C28.8038 27.4556 29.3289 27.5979 29.8599 27.3757C30.3864 27.1553 30.7041 26.7146 30.8911 26.241C31.0763 25.7718 31.1527 25.2262 31.1782 24.7009C31.2291 23.6562 31.0795 22.5302 31.0356 21.9988C30.8464 19.7074 30.3147 17.4676 29.7954 15.2751C29.273 13.0698 28.7629 10.9122 28.5854 8.72632C28.4517 7.07872 28.4675 5.19408 28.9985 3.67163C29.2618 2.91709 29.6451 2.26977 30.1831 1.78198C30.717 1.29803 31.4274 0.94876 32.3853 0.821045Z" fill="black"/>
<path d="M32.3853 0.821045C33.9937 0.606602 35.3203 0.95258 36.4106 1.65503C37.5096 2.36316 38.3953 3.45065 39.0747 4.75366C40.4384 7.36919 40.9197 10.7522 40.689 13.2839C40.632 13.9089 40.3911 14.9088 40.0981 16.1355C39.8106 17.3396 39.4831 18.7268 39.2808 20.0642C39.0799 21.3923 38.9932 22.7255 39.2192 23.8074C39.4492 24.908 40.0298 25.8395 41.2085 26.1453C43.1637 26.6523 45.2199 26.1118 47.1978 25.157C49.1799 24.2001 51.1605 22.7881 52.9878 21.449C54.8944 20.0515 56.613 18.7513 58.0649 18.0291C59.7545 17.1887 61.7874 17.1062 63.4771 17.74C65.1543 18.3692 66.4742 19.6934 66.8198 21.6794C67.2648 24.237 65.932 26.1331 63.8579 27.6287C61.773 29.132 59.0442 30.147 56.9429 30.9246C56.8678 30.9524 56.771 30.987 56.6538 31.0281C55.8086 31.3243 53.9786 31.9464 52.6294 32.7693C51.9665 33.1736 51.332 33.6774 51.0327 34.2839C50.8756 34.6025 50.8059 34.9605 50.8853 35.3376C50.9538 35.6629 51.1248 35.9635 51.3774 36.24L51.4907 36.3562C52.1593 37.0107 53.1275 37.1011 53.8638 37.0906C55.4467 37.068 56.4368 37.461 57.0063 38.0056C57.5676 38.5425 57.7961 39.2997 57.7065 40.1824C57.4296 42.9094 58.3935 45.7228 60.8208 47.2087C61.3946 47.56 61.8227 47.9751 62.0708 48.49C62.3163 48.9998 62.4113 49.661 62.2241 50.5544C61.914 52.034 60.8916 53.3005 59.7261 54.4714C58.2987 55.9053 56.4145 57.0783 54.5513 57.4255C52.7214 57.7665 50.9074 57.3178 49.4819 55.4919C49.062 54.9539 48.2744 53.7393 47.3813 52.9441C46.9277 52.5401 46.3864 52.1851 45.7817 52.0867C45.1419 51.9825 44.5071 52.1776 43.9302 52.7253C43.0126 53.5966 42.8511 54.8019 43.0239 56.0408C43.1962 57.2753 43.7127 58.6472 44.2837 59.9851C44.8674 61.3527 45.4971 62.6641 45.9673 63.8855C46.4413 65.1169 46.6889 66.11 46.5825 66.8093C46.4493 67.6816 45.9827 68.0624 45.4634 68.1707C44.8984 68.2883 44.1777 68.0997 43.5854 67.615C43.1184 67.2327 42.7512 66.6636 42.4409 65.9988C42.1307 65.3339 41.8988 64.6229 41.6704 63.9656C41.2762 62.8312 41.0416 61.5735 40.7056 60.2468C40.3778 58.9528 39.9586 57.629 39.1958 56.5232C38.6925 55.7937 38.1346 55.3393 37.4985 55.3191C36.861 55.2989 36.3764 55.7216 36.0396 56.1531C35.6908 56.5999 35.4025 57.1788 35.1694 57.7214C34.9356 58.266 34.74 58.8184 34.5942 59.2019C33.769 61.3738 32.7327 63.0637 30.5874 63.8875C28.2123 64.7991 25.0229 64.1926 23.562 62.1228C22.838 61.0968 22.6587 59.899 22.8013 58.6453C22.9446 57.3853 23.4105 56.1 23.938 54.946C24.2936 54.1679 24.5951 53.4034 24.7808 52.7253C24.9607 52.0682 25.0555 51.4102 24.9126 50.8884C24.8368 50.6118 24.6881 50.3518 24.4331 50.1677C24.1809 49.9858 23.8758 49.9143 23.5542 49.9177C22.9346 49.9244 22.1312 50.2082 21.1294 50.7439C18.1256 52.3502 15.4273 54.448 12.7271 56.3914C11.5393 57.2461 10.2462 58.3023 8.83643 59.2058C7.43424 60.1044 6.01511 60.7831 4.65869 60.8914H4.65771C3.85817 60.955 3.05877 60.7096 2.58252 60.1785C2.27948 59.8404 2.14545 59.3927 2.16064 58.8406C2.17606 58.282 2.34468 57.6464 2.61572 56.9949C3.09094 55.8528 3.84268 54.7476 4.43994 54.0574L4.68506 53.7878C7.33015 51.0488 10.545 48.8637 14.0601 47.4001C14.5728 47.1867 15.2786 46.9689 16.0981 46.6951C16.9006 46.427 17.7872 46.1125 18.5972 45.7166C19.4025 45.3228 20.1711 44.8303 20.7095 44.1892C21.2617 43.5316 21.5676 42.72 21.4282 41.7449C21.3716 41.3485 21.2216 41.0096 20.9644 40.7556C20.7086 40.5031 20.3877 40.3753 20.061 40.324C19.4321 40.2253 18.6866 40.3957 18.0005 40.6287C17.2972 40.8675 16.5781 41.2002 15.9761 41.4978C15.3498 41.8074 14.8917 42.0559 14.6274 42.1716C14.0245 42.4354 13.4944 42.5943 13.0298 42.4812C12.5968 42.3756 12.2677 42.0115 12.1147 41.4851C11.9611 40.9562 12.0158 40.3463 12.2749 39.8894C12.8379 38.8975 14.0061 38.3351 15.2817 37.9519C15.5265 37.8783 17.0115 37.4302 18.104 36.9207C18.379 36.7924 18.643 36.6542 18.8608 36.5105C19.0623 36.3776 19.2901 36.1986 19.4165 35.9695C19.4858 35.8439 19.5398 35.6749 19.5103 35.4822C19.4802 35.2866 19.3745 35.1358 19.2554 35.0291C19.0413 34.8374 18.7188 34.7293 18.3696 34.655C16.331 34.2215 14.4174 34.294 12.564 34.4099C10.6961 34.5268 8.9046 34.685 7.01221 34.4646C4.57612 34.1808 2.4995 32.7673 1.59033 31.0017C1.13939 30.1259 0.976181 29.1679 1.18311 28.2048C1.39013 27.2414 1.97693 26.2295 3.09912 25.2664C4.9073 23.7147 7.54037 23.2791 9.96631 23.7341C12.3935 24.1895 14.6282 25.4353 16.7202 26.8923C17.0212 27.102 17.5074 27.5196 18.1284 28.0466C18.7363 28.5625 19.4516 29.1637 20.1753 29.7039C20.8939 30.2402 21.6483 30.7372 22.3364 31.03C22.9865 31.3066 23.7684 31.4817 24.3765 31.0496C24.7369 30.7934 24.9596 30.466 25.0581 30.0964C25.1535 29.7386 25.1242 29.3773 25.0464 29.0535C24.8941 28.4197 24.5228 27.7988 24.2866 27.3992C24.0308 26.9664 23.5495 26.4315 23.0464 25.8845C22.5255 25.3181 21.9497 24.7068 21.439 24.0798C20.9255 23.4495 20.5088 22.839 20.2896 22.2869C20.0989 21.8067 20.08 21.4332 20.2095 21.1326L20.2729 21.0085C20.6238 20.4346 20.9458 20.1835 21.2075 20.0906C21.4551 20.0027 21.734 20.0271 22.0796 20.2C22.4346 20.3776 22.8241 20.6966 23.2446 21.1345C23.6616 21.5688 24.0868 22.0961 24.5181 22.6667C25.3625 23.7841 26.256 25.1069 27.0757 26.0417C27.4886 26.5127 27.9196 26.93 28.3589 27.1912C28.8038 27.4556 29.3289 27.5979 29.8599 27.3757C30.3864 27.1553 30.7041 26.7146 30.8911 26.241C31.0763 25.7718 31.1527 25.2262 31.1782 24.7009C31.2291 23.6562 31.0795 22.5302 31.0356 21.9988C30.8464 19.7074 30.3147 17.4676 29.7954 15.2751C29.273 13.0698 28.7629 10.9122 28.5854 8.72632C28.4517 7.07872 28.4675 5.19408 28.9985 3.67163C29.2618 2.91709 29.6451 2.26977 30.1831 1.78198C30.717 1.29803 31.4274 0.94876 32.3853 0.821045Z" stroke="black"/>
<path d="M32.3853 0.821045C33.9937 0.606602 35.3203 0.95258 36.4106 1.65503C37.5096 2.36316 38.3953 3.45065 39.0747 4.75366C40.4384 7.36919 40.9197 10.7522 40.689 13.2839C40.632 13.9089 40.3911 14.9088 40.0981 16.1355C39.8106 17.3396 39.4831 18.7268 39.2808 20.0642C39.0799 21.3923 38.9932 22.7255 39.2192 23.8074C39.4492 24.908 40.0298 25.8395 41.2085 26.1453C43.1637 26.6523 45.2199 26.1118 47.1978 25.157C49.1799 24.2001 51.1605 22.7881 52.9878 21.449C54.8944 20.0515 56.613 18.7513 58.0649 18.0291C59.7545 17.1887 61.7874 17.1062 63.4771 17.74C65.1543 18.3692 66.4742 19.6934 66.8198 21.6794C67.2648 24.237 65.932 26.1331 63.8579 27.6287C61.773 29.132 59.0442 30.147 56.9429 30.9246C56.8678 30.9524 56.771 30.987 56.6538 31.0281C55.8086 31.3243 53.9786 31.9464 52.6294 32.7693C51.9665 33.1736 51.332 33.6774 51.0327 34.2839C50.8756 34.6025 50.8059 34.9605 50.8853 35.3376C50.9538 35.6629 51.1248 35.9635 51.3774 36.24L51.4907 36.3562C52.1593 37.0107 53.1275 37.1011 53.8638 37.0906C55.4467 37.068 56.4368 37.461 57.0063 38.0056C57.5676 38.5425 57.7961 39.2997 57.7065 40.1824C57.4296 42.9094 58.3935 45.7228 60.8208 47.2087C61.3946 47.56 61.8227 47.9751 62.0708 48.49C62.3163 48.9998 62.4113 49.661 62.2241 50.5544C61.914 52.034 60.8916 53.3005 59.7261 54.4714C58.2987 55.9053 56.4145 57.0783 54.5513 57.4255C52.7214 57.7665 50.9074 57.3178 49.4819 55.4919C49.062 54.9539 48.2744 53.7393 47.3813 52.9441C46.9277 52.5401 46.3864 52.1851 45.7817 52.0867C45.1419 51.9825 44.5071 52.1776 43.9302 52.7253C43.0126 53.5966 42.8511 54.8019 43.0239 56.0408C43.1962 57.2753 43.7127 58.6472 44.2837 59.9851C44.8674 61.3527 45.4971 62.6641 45.9673 63.8855C46.4413 65.1169 46.6889 66.11 46.5825 66.8093C46.4493 67.6816 45.9827 68.0624 45.4634 68.1707C44.8984 68.2883 44.1777 68.0997 43.5854 67.615C43.1184 67.2327 42.7512 66.6636 42.4409 65.9988C42.1307 65.3339 41.8988 64.6229 41.6704 63.9656C41.2762 62.8312 41.0416 61.5735 40.7056 60.2468C40.3778 58.9528 39.9586 57.629 39.1958 56.5232C38.6925 55.7937 38.1346 55.3393 37.4985 55.3191C36.861 55.2989 36.3764 55.7216 36.0396 56.1531C35.6908 56.5999 35.4025 57.1788 35.1694 57.7214C34.9356 58.266 34.74 58.8184 34.5942 59.2019C33.769 61.3738 32.7327 63.0637 30.5874 63.8875C28.2123 64.7991 25.0229 64.1926 23.562 62.1228C22.838 61.0968 22.6587 59.899 22.8013 58.6453C22.9446 57.3853 23.4105 56.1 23.938 54.946C24.2936 54.1679 24.5951 53.4034 24.7808 52.7253C24.9607 52.0682 25.0555 51.4102 24.9126 50.8884C24.8368 50.6118 24.6881 50.3518 24.4331 50.1677C24.1809 49.9858 23.8758 49.9143 23.5542 49.9177C22.9346 49.9244 22.1312 50.2082 21.1294 50.7439C18.1256 52.3502 15.4273 54.448 12.7271 56.3914C11.5393 57.2461 10.2462 58.3023 8.83643 59.2058C7.43424 60.1044 6.01511 60.7831 4.65869 60.8914H4.65771C3.85817 60.955 3.05877 60.7096 2.58252 60.1785C2.27948 59.8404 2.14545 59.3927 2.16064 58.8406C2.17606 58.282 2.34468 57.6464 2.61572 56.9949C3.09094 55.8528 3.84268 54.7476 4.43994 54.0574L4.68506 53.7878C7.33015 51.0488 10.545 48.8637 14.0601 47.4001C14.5728 47.1867 15.2786 46.9689 16.0981 46.6951C16.9006 46.427 17.7872 46.1125 18.5972 45.7166C19.4025 45.3228 20.1711 44.8303 20.7095 44.1892C21.2617 43.5316 21.5676 42.72 21.4282 41.7449C21.3716 41.3485 21.2216 41.0096 20.9644 40.7556C20.7086 40.5031 20.3877 40.3753 20.061 40.324C19.4321 40.2253 18.6866 40.3957 18.0005 40.6287C17.2972 40.8675 16.5781 41.2002 15.9761 41.4978C15.3498 41.8074 14.8917 42.0559 14.6274 42.1716C14.0245 42.4354 13.4944 42.5943 13.0298 42.4812C12.5968 42.3756 12.2677 42.0115 12.1147 41.4851C11.9611 40.9562 12.0158 40.3463 12.2749 39.8894C12.8379 38.8975 14.0061 38.3351 15.2817 37.9519C15.5265 37.8783 17.0115 37.4302 18.104 36.9207C18.379 36.7924 18.643 36.6542 18.8608 36.5105C19.0623 36.3776 19.2901 36.1986 19.4165 35.9695C19.4858 35.8439 19.5398 35.6749 19.5103 35.4822C19.4802 35.2866 19.3745 35.1358 19.2554 35.0291C19.0413 34.8374 18.7188 34.7293 18.3696 34.655C16.331 34.2215 14.4174 34.294 12.564 34.4099C10.6961 34.5268 8.9046 34.685 7.01221 34.4646C4.57612 34.1808 2.4995 32.7673 1.59033 31.0017C1.13939 30.1259 0.976181 29.1679 1.18311 28.2048C1.39013 27.2414 1.97693 26.2295 3.09912 25.2664C4.9073 23.7147 7.54037 23.2791 9.96631 23.7341C12.3935 24.1895 14.6282 25.4353 16.7202 26.8923C17.0212 27.102 17.5074 27.5196 18.1284 28.0466C18.7363 28.5625 19.4516 29.1637 20.1753 29.7039C20.8939 30.2402 21.6483 30.7372 22.3364 31.03C22.9865 31.3066 23.7684 31.4817 24.3765 31.0496C24.7369 30.7934 24.9596 30.466 25.0581 30.0964C25.1535 29.7386 25.1242 29.3773 25.0464 29.0535C24.8941 28.4197 24.5228 27.7988 24.2866 27.3992C24.0308 26.9664 23.5495 26.4315 23.0464 25.8845C22.5255 25.3181 21.9497 24.7068 21.439 24.0798C20.9255 23.4495 20.5088 22.839 20.2896 22.2869C20.0989 21.8067 20.08 21.4332 20.2095 21.1326L20.2729 21.0085C20.6238 20.4346 20.9458 20.1835 21.2075 20.0906C21.4551 20.0027 21.734 20.0271 22.0796 20.2C22.4346 20.3776 22.8241 20.6966 23.2446 21.1345C23.6616 21.5688 24.0868 22.0961 24.5181 22.6667C25.3625 23.7841 26.256 25.1069 27.0757 26.0417C27.4886 26.5127 27.9196 26.93 28.3589 27.1912C28.8038 27.4556 29.3289 27.5979 29.8599 27.3757C30.3864 27.1553 30.7041 26.7146 30.8911 26.241C31.0763 25.7718 31.1527 25.2262 31.1782 24.7009C31.2291 23.6562 31.0795 22.5302 31.0356 21.9988C30.8464 19.7074 30.3147 17.4676 29.7954 15.2751C29.273 13.0698 28.7629 10.9122 28.5854 8.72632C28.4517 7.07872 28.4675 5.19408 28.9985 3.67163C29.2618 2.91709 29.6451 2.26977 30.1831 1.78198C30.717 1.29803 31.4274 0.94876 32.3853 0.821045Z" stroke="#FFF9F9" stroke-opacity="0.95"/>
<path d="M16.5845 14.3212C17.1056 13.9726 17.7493 13.8844 18.3472 14.1864C19.0953 14.5644 19.6764 15.5646 19.7993 16.5956C19.8593 17.099 19.8011 17.5585 19.6392 17.9061C19.4836 18.2397 19.2292 18.4817 18.8403 18.5907C18.2548 18.7546 17.5384 18.563 16.8999 18.0966C16.1228 17.5288 15.6248 16.6751 15.6567 15.9462C15.6862 15.2763 16.0571 14.6739 16.5845 14.3212Z" fill="black"/>
<path d="M16.5845 14.3212C17.1056 13.9726 17.7493 13.8844 18.3472 14.1864C19.0953 14.5644 19.6764 15.5646 19.7993 16.5956C19.8593 17.099 19.8011 17.5585 19.6392 17.9061C19.4836 18.2397 19.2292 18.4817 18.8403 18.5907C18.2548 18.7546 17.5384 18.563 16.8999 18.0966C16.1228 17.5288 15.6248 16.6751 15.6567 15.9462C15.6862 15.2763 16.0571 14.6739 16.5845 14.3212Z" stroke="black"/>
<path d="M16.5845 14.3212C17.1056 13.9726 17.7493 13.8844 18.3472 14.1864C19.0953 14.5644 19.6764 15.5646 19.7993 16.5956C19.8593 17.099 19.8011 17.5585 19.6392 17.9061C19.4836 18.2397 19.2292 18.4817 18.8403 18.5907C18.2548 18.7546 17.5384 18.563 16.8999 18.0966C16.1228 17.5288 15.6248 16.6751 15.6567 15.9462C15.6862 15.2763 16.0571 14.6739 16.5845 14.3212Z" stroke="#FFF9F9" stroke-opacity="0.95"/>
<path d="M22.7754 66.1698C23.7209 66.1345 25.2501 66.5152 26.3223 67.2548C27.0312 67.7438 27.3741 68.3995 27.3838 68.9911C27.3932 69.5646 27.0911 70.1738 26.3047 70.6093C25.1203 71.265 23.3565 71.419 22.0439 71.036C20.351 70.5419 19.7934 69.3377 19.9619 68.3094C20.134 67.2605 21.085 66.233 22.7754 66.1698Z" fill="black"/>
<path d="M22.7754 66.1698C23.7209 66.1345 25.2501 66.5152 26.3223 67.2548C27.0312 67.7438 27.3741 68.3995 27.3838 68.9911C27.3932 69.5646 27.0911 70.1738 26.3047 70.6093C25.1203 71.265 23.3565 71.419 22.0439 71.036C20.351 70.5419 19.7934 69.3377 19.9619 68.3094C20.134 67.2605 21.085 66.233 22.7754 66.1698Z" stroke="black"/>
<path d="M22.7754 66.1698C23.7209 66.1345 25.2501 66.5152 26.3223 67.2548C27.0312 67.7438 27.3741 68.3995 27.3838 68.9911C27.3932 69.5646 27.0911 70.1738 26.3047 70.6093C25.1203 71.265 23.3565 71.419 22.0439 71.036C20.351 70.5419 19.7934 69.3377 19.9619 68.3094C20.134 67.2605 21.085 66.233 22.7754 66.1698Z" stroke="#FFF9F9" stroke-opacity="0.95"/>
</svg>
