<svg width="121" height="84" viewBox="0 0 121 84" fill="none" xmlns="http://www.w3.org/2000/svg">
<ellipse cx="60.5256" cy="47.1589" rx="43.8618" ry="21.9309" fill="black"/>
<path d="M91.928 51.4944C105.481 59.2085 113.261 67.2732 115.143 80.8606" stroke="black" stroke-width="5.29555" stroke-linecap="round" stroke-linejoin="round"/>
<path d="M80.0066 51.4944C93.5592 59.2085 101.339 67.2732 103.222 80.8606" stroke="black" stroke-width="5.29555" stroke-linecap="round" stroke-linejoin="round"/>
<path d="M29.0655 51.4944C15.5128 59.2085 7.73265 67.2732 5.85034 80.8606" stroke="black" stroke-width="5.29555" stroke-linecap="round" stroke-linejoin="round"/>
<path d="M40.9868 51.4944C27.4342 59.2085 19.654 67.2732 17.7717 80.8606" stroke="black" stroke-width="5.29555" stroke-linecap="round" stroke-linejoin="round"/>
<path fill-rule="evenodd" clip-rule="evenodd" d="M117.419 4.24866C115.677 9.07136 112.654 12.2629 110.175 11.6264C107.87 11.0342 106.747 7.31163 107.244 2.71704C101.089 11.6637 101.968 21.9366 109.416 36.3358C114.63 29.0089 118.154 19.4756 117.419 4.24866Z" fill="black"/>
<path d="M110.175 11.6264L110.8 9.19556L110.8 9.19556L110.175 11.6264ZM117.419 4.24866L115.059 3.39589C115.465 2.27078 116.609 1.58895 117.792 1.76681C118.975 1.94467 119.868 2.93277 119.926 4.12766L117.419 4.24866ZM107.244 2.71704L105.177 1.29449C105.828 0.347631 107.039 -0.0357332 108.117 0.363935C109.195 0.763604 109.863 1.84416 109.739 2.98682L107.244 2.71704ZM109.416 36.3358L111.46 37.791C110.953 38.5038 110.111 38.901 109.239 38.8393C108.366 38.7776 107.588 38.2659 107.186 37.4888L109.416 36.3358ZM97.9425 48.6603L99.659 50.4912V50.4912L97.9425 48.6603ZM110.175 11.6264L110.8 9.19556C110.802 9.19606 110.805 9.1967 110.81 9.19708C110.816 9.19747 110.829 9.19782 110.851 9.19544C110.894 9.19066 110.98 9.17376 111.112 9.11679C111.388 8.99737 111.79 8.73388 112.273 8.23603C113.245 7.23582 114.273 5.57021 115.059 3.39589L117.419 4.24866L119.78 5.10142C118.823 7.7498 117.469 10.0913 115.874 11.7335C114.364 13.2871 112.105 14.7131 109.551 14.0573L110.175 11.6264ZM107.244 2.71704L109.739 2.98682C109.517 5.04599 109.679 6.75321 110.049 7.90579C110.232 8.47712 110.439 8.82839 110.6 9.02021C110.676 9.11162 110.733 9.15625 110.762 9.17577C110.789 9.19355 110.8 9.19551 110.8 9.19556L110.175 11.6264L109.551 14.0573C107.173 13.4465 105.887 11.364 105.269 9.43947C104.626 7.43406 104.475 4.98269 104.749 2.44726L107.244 2.71704ZM107.244 2.71704L109.312 4.13959C106.557 8.14394 105.39 12.3857 105.732 17.3077C106.08 22.3137 107.998 28.133 111.645 35.1827L109.416 36.3358L107.186 37.4888C103.385 30.1393 101.14 23.6226 100.725 17.6557C100.304 11.6048 101.776 6.23682 105.177 1.29449L107.244 2.71704ZM109.416 36.3358L107.371 34.8805C112.229 28.0546 115.623 19.0883 114.912 4.36965L117.419 4.24866L119.926 4.12766C120.686 19.863 117.031 29.9633 111.46 37.791L109.416 36.3358ZM93.1241 53.2765L91.3494 51.5019C92.9627 49.8886 94.6127 48.3419 96.2259 46.8294L97.9425 48.6603L99.659 50.4912C98.0363 52.0126 96.4454 53.5045 94.8987 55.0512L93.1241 53.2765ZM97.9425 48.6603L96.2259 46.8294C100.32 42.9911 104.186 39.3557 107.371 34.8805L109.416 36.3358L111.46 37.791C107.939 42.7387 103.701 46.7015 99.659 50.4912L97.9425 48.6603Z" fill="black"/>
<path fill-rule="evenodd" clip-rule="evenodd" d="M3.09683 4.24866C4.83917 9.07136 7.86228 12.2629 10.3407 11.6264C12.6464 11.0342 13.7687 7.31163 13.2719 2.71704C19.4273 11.6637 18.5486 21.9366 11.1006 36.3358C5.88609 29.0089 2.36189 19.4756 3.09683 4.24866Z" fill="black"/>
<path d="M10.3407 11.6264L9.71637 9.19556L9.71637 9.19556L10.3407 11.6264ZM3.09683 4.24866L5.45725 3.39589C5.05078 2.27078 3.90669 1.58895 2.7237 1.76681C1.5407 1.94467 0.647683 2.93277 0.59001 4.12766L3.09683 4.24866ZM13.2719 2.71704L15.3396 1.29449C14.6881 0.347631 13.4768 -0.0357332 12.3992 0.363935C11.3216 0.763604 10.6532 1.84416 10.7767 2.98682L13.2719 2.71704ZM11.1006 36.3358L9.05581 37.791C9.56308 38.5038 10.4049 38.901 11.2776 38.8393C12.1503 38.7776 12.9278 38.2659 13.3298 37.4888L11.1006 36.3358ZM22.5737 48.6603L20.8571 50.4912V50.4912L22.5737 48.6603ZM10.3407 11.6264L9.71637 9.19556C9.71443 9.19606 9.71149 9.1967 9.70575 9.19708C9.69978 9.19747 9.68683 9.19782 9.66536 9.19544C9.62213 9.19066 9.53618 9.17376 9.40444 9.11679C9.1283 8.99737 8.72656 8.73388 8.24295 8.23603C7.27135 7.23582 6.24279 5.57021 5.45725 3.39589L3.09683 4.24866L0.736411 5.10142C1.69321 7.7498 3.04737 10.0913 4.64251 11.7335C6.15175 13.2871 8.41135 14.7131 10.965 14.0573L10.3407 11.6264ZM13.2719 2.71704L10.7767 2.98682C10.9994 5.04599 10.8374 6.75321 10.4675 7.90579C10.2842 8.47712 10.0768 8.82839 9.91634 9.02021C9.83987 9.11162 9.78308 9.15625 9.75389 9.17577C9.7273 9.19355 9.71658 9.19551 9.71637 9.19556L10.3407 11.6264L10.965 14.0573C13.3432 13.4465 14.6294 11.364 15.247 9.43947C15.8905 7.43406 16.0413 4.98269 15.7671 2.44726L13.2719 2.71704ZM13.2719 2.71704L11.2043 4.13959C13.9593 8.14394 15.1259 12.3857 14.7838 17.3077C14.4359 22.3137 12.5179 28.133 8.87138 35.1827L11.1006 36.3358L13.3298 37.4888C17.1313 30.1393 19.3766 23.6226 19.7912 17.6557C20.2117 11.6048 18.7399 6.23682 15.3396 1.29449L13.2719 2.71704ZM11.1006 36.3358L13.1453 34.8805C8.28734 28.0546 4.89325 19.0883 5.60366 4.36965L3.09683 4.24866L0.59001 4.12766C-0.169473 19.863 3.48483 29.9633 9.05581 37.791L11.1006 36.3358ZM27.3921 53.2765L29.1667 51.5019C27.5534 49.8886 25.9034 48.3419 24.2902 46.8294L22.5737 48.6603L20.8571 50.4912C22.4798 52.0126 24.0707 53.5045 25.6174 55.0512L27.3921 53.2765ZM22.5737 48.6603L24.2902 46.8294C20.1964 42.9911 16.3303 39.3557 13.1453 34.8805L11.1006 36.3358L9.05581 37.791C12.5771 42.7387 16.8151 46.7015 20.8571 50.4912L22.5737 48.6603Z" fill="black"/>
<path d="M76.5981 11.0034C84.7149 11.0035 91.4321 17.3186 91.4321 25.2739C91.432 33.2291 84.7148 39.5444 76.5981 39.5444C68.4815 39.5444 61.7643 33.2292 61.7642 25.2739C61.7642 17.3186 68.4814 11.0034 76.5981 11.0034Z" fill="white" stroke="black" stroke-width="3.59754" stroke-miterlimit="10" stroke-linecap="round"/>
<path d="M80.6763 30.6384C83.7692 30.6384 86.2765 28.2385 86.2765 25.2781C86.2765 22.3176 83.7692 19.9177 80.6763 19.9177C77.5835 19.9177 75.0762 22.3176 75.0762 25.2781C75.0762 28.2385 77.5835 30.6384 80.6763 30.6384Z" fill="black"/>
<path d="M44.248 11.0034C52.3648 11.0035 59.082 17.3186 59.082 25.2739C59.0819 33.2291 52.3647 39.5444 44.248 39.5444C36.1314 39.5444 29.4142 33.2292 29.4141 25.2739C29.4141 17.3186 36.1313 11.0034 44.248 11.0034Z" fill="white" stroke="black" stroke-width="3.59754" stroke-miterlimit="10" stroke-linecap="round"/>
<path d="M48.338 30.6384C51.4308 30.6384 53.9381 28.2385 53.9381 25.2781C53.9381 22.3176 51.4308 19.9177 48.338 19.9177C45.2451 19.9177 42.7378 22.3176 42.7378 25.2781C42.7378 28.2385 45.2451 30.6384 48.338 30.6384Z" fill="black"/>
</svg>
