<svg width="124" height="78" viewBox="0 0 124 78" fill="none" xmlns="http://www.w3.org/2000/svg">
<path d="M3.50023 44.5691C4.34825 42.3507 5.94145 39.8842 6.98795 38.4741C10.2438 34.0869 20.707 21.464 20.707 21.464C31.2144 8.4883 46.3634 2 61.5124 2C76.6614 2 91.8112 8.4883 102.319 21.4649C102.319 21.4649 112.783 34.0878 116.038 38.475C117.084 39.8851 118.678 42.3507 119.526 44.5691C120.495 47.1041 121.027 49.8557 121.027 52.7309C121.027 65.3565 110.792 75.5914 98.166 75.5914C90.6655 75.5914 84.0076 71.9792 79.8396 66.3985C75.6708 71.9783 69.0138 75.5914 61.5133 75.5914C54.0128 75.5914 47.3558 71.9792 43.1869 66.3985C39.0181 71.9783 32.3611 75.5914 24.8605 75.5914C12.2349 75.5914 1.99995 65.3565 1.99995 52.7309C1.99995 49.8557 2.53131 47.1041 3.50023 44.5691Z" fill="black" stroke="white" stroke-width="4" stroke-miterlimit="10" stroke-linecap="round"/>
<path d="M47.0691 21.916C39.9231 21.9161 34.0095 27.4765 34.0095 34.4804C34.0098 41.4841 39.9233 47.0438 47.0691 47.0439C54.2151 47.0439 60.1294 41.4842 60.1296 34.4804C60.1296 27.4764 54.2152 21.916 47.0691 21.916Z" fill="white" stroke="black" stroke-width="3.16732" stroke-miterlimit="10" stroke-linecap="round"/>
<path d="M75.5502 21.916C68.4042 21.9162 62.4906 27.4766 62.4906 34.4805C62.4908 41.4842 68.4043 47.0438 75.5502 47.044C82.6961 47.044 88.6105 41.4843 88.6107 34.4805C88.6107 27.4765 82.6963 21.916 75.5502 21.916Z" fill="white" stroke="black" stroke-width="3.16732" stroke-miterlimit="10" stroke-linecap="round"/>
</svg>
