<svg width="103" height="99" viewBox="0 0 103 99" fill="none" xmlns="http://www.w3.org/2000/svg">
<path d="M17.9037 26.9748H18.0341C17.1161 17.2895 20.96 9.87304 37.222 9.87304H37.462C39.4699 5.28858 43.7154 2.35223 51.3822 2.35223C59.0491 2.35223 63.2945 5.28858 65.3025 9.87304H65.5424C81.8045 9.87304 85.6431 17.2895 84.7304 26.9748H84.8608C126.491 33.5725 73.2041 85.3106 73.2041 85.3106H29.5552C29.5552 85.3106 -23.732 33.5725 17.8985 26.9748H17.9037Z" fill="black" stroke="white" stroke-width="4" stroke-miterlimit="10" stroke-linecap="round"/>
<path d="M84.8619 26.9792C126.49 33.5764 73.2059 85.3111 73.2059 85.3111L84.8619 26.9792Z" fill="black"/>
<path d="M84.8619 26.9792C126.49 33.5764 73.2059 85.3112 73.2059 85.3112" stroke="white" stroke-width="4" stroke-miterlimit="10" stroke-linecap="round"/>
<path d="M65.55 9.8736C94.7134 9.8736 83.9336 33.7331 77.3833 51.7516L65.55 9.8736Z" fill="black"/>
<path d="M65.55 9.8736C94.7134 9.8736 83.9336 33.7331 77.3833 51.7516" stroke="white" stroke-width="4" stroke-miterlimit="10" stroke-linecap="round"/>
<path d="M41.9877 44.2313C35.4375 26.218 29.5234 2.35324 51.3907 2.35324C73.2528 2.35324 67.344 26.2128 60.7937 44.2313" fill="black"/>
<path d="M41.9877 44.2313C35.4375 26.218 29.5234 2.35324 51.3907 2.35324C73.2528 2.35324 67.344 26.2128 60.7937 44.2313" stroke="white" stroke-width="4" stroke-miterlimit="10" stroke-linecap="round"/>
<path d="M17.9143 26.9792C-23.7134 33.5764 29.5702 85.3111 29.5702 85.3111L17.9143 26.9792Z" fill="black"/>
<path d="M17.9143 26.9792C-23.7134 33.5764 29.5702 85.3112 29.5702 85.3112" stroke="white" stroke-width="4" stroke-miterlimit="10" stroke-linecap="round"/>
<path d="M37.2265 9.8736C8.0631 9.8736 18.8429 33.7331 25.3932 51.7516L37.2265 9.8736Z" fill="black"/>
<path d="M37.2265 9.8736C8.0631 9.8736 18.8429 33.7331 25.3932 51.7516" stroke="white" stroke-width="4" stroke-miterlimit="10" stroke-linecap="round"/>
<path d="M66.0094 72.1989C72.9472 72.1992 78.688 77.5964 78.6881 84.3962C78.6881 91.1961 72.9472 96.5942 66.0094 96.5944C59.0714 96.5944 53.3297 91.1962 53.3297 84.3962C53.3298 77.5962 59.0715 72.1989 66.0094 72.1989Z" fill="white" stroke="black" stroke-width="3.0751" stroke-miterlimit="10" stroke-linecap="round"/>
<path d="M38.3578 72.1989C45.2955 72.1992 51.0364 77.5964 51.0365 84.3962C51.0365 91.1961 45.2956 96.5942 38.3578 96.5944C31.4198 96.5944 25.6781 91.1962 25.6781 84.3962C25.6782 77.5962 31.4198 72.1989 38.3578 72.1989Z" fill="white" stroke="black" stroke-width="3.0751" stroke-miterlimit="10" stroke-linecap="round"/>
</svg>
