<svg width="290" height="1076" viewBox="0 0 290 1076" fill="none" xmlns="http://www.w3.org/2000/svg">
<path fill-rule="evenodd" clip-rule="evenodd" d="M152.345 0.190722C158.403 1.27477 164.476 5.85726 169.164 12.8818C170.272 14.5424 171.413 16.0351 171.7 16.1988C173.14 17.0219 181.215 30.8301 180.835 31.8201C180.575 32.4973 181.228 32.375 184.493 31.1361C204.242 23.6419 225.585 23.6616 224.738 31.1733C224.298 35.0719 218.182 38.6895 191.751 50.684C189.732 51.6002 187.744 52.6039 187.331 52.9147L186.582 53.4801L187.25 55.9838C188.306 59.9373 190.455 67.6369 190.972 69.3159C191.121 69.8002 190.812 70.4193 189.802 71.6588C186.275 75.9864 185.751 77.2284 187.078 78.1151L187.794 78.5928L187.188 79.2662C186.855 79.6364 186.39 79.9396 186.155 79.9396C185.604 79.9396 185.617 80.1103 186.241 81.0631C186.7 81.7638 186.702 81.8465 186.26 81.8465C185.988 81.8465 185.677 81.7035 185.569 81.5287C185.461 81.3539 185.216 81.2109 185.024 81.2109C184.825 81.2109 184.885 81.4489 185.164 81.767C185.433 82.0728 185.751 82.6451 185.87 83.0383C186.279 84.3791 188.955 88.9375 191.029 91.8254C195.855 98.5464 195.73 102.404 190.652 103.458C187.698 104.071 187.47 104.804 188.969 108.86C189.755 110.985 189.969 114.105 189.392 115.031C189.135 115.445 188.912 117.345 188.797 120.095C188.696 122.516 188.484 124.661 188.325 124.862C188.166 125.063 187.936 126.658 187.814 128.406C187.691 130.154 187.383 132.799 187.129 134.285C186.875 135.771 186.624 137.272 186.57 137.622C186.516 137.972 186.397 138.472 186.304 138.734C185.649 140.588 185.41 141.632 185.41 142.647C185.41 145.23 182.813 149.828 181.343 149.848C180.941 149.853 180.281 150.215 179.876 150.652C179.471 151.089 178.925 151.447 178.663 151.447C178.401 151.447 177.823 151.733 177.378 152.082C176.934 152.432 176.339 152.718 176.056 152.718C175.773 152.718 175.397 153.099 175.22 153.564C174.992 154.164 174.8 154.312 174.559 154.071C174.185 153.697 172.763 154.401 171.483 155.594C170.928 156.111 170.66 156.183 170.328 155.907C169.993 155.629 169.787 155.701 169.423 156.222C169.142 156.622 168.868 156.762 168.747 156.567C168.61 156.346 168.274 156.341 167.722 156.551C167.13 156.776 166.761 156.75 166.402 156.459C165.973 156.111 165.939 156.143 166.153 156.691C166.408 157.345 167.805 162.995 168.099 164.565C168.533 166.878 174.894 169.924 178.241 169.422C179.844 169.182 182.205 169.992 184.139 171.446C186.931 173.545 189.337 174.278 194.633 174.641C198.478 174.905 199.85 175.403 202.884 177.637C203.999 178.458 205.83 179.643 206.954 180.272L208.996 181.414L213.158 181.229C217.707 181.026 218.617 181.258 219.46 182.833C219.686 183.257 221.11 184.734 222.624 186.115C224.137 187.497 225.562 189.093 225.79 189.662C226.018 190.231 226.609 191.167 227.103 191.743C227.597 192.319 228.42 193.606 228.933 194.603C229.445 195.601 230.743 197.418 231.817 198.642C241.476 209.648 250.436 226.226 253.758 239.236C254.51 242.183 254.723 242.639 256.729 245.623L258.188 247.793V250.48C258.188 253.422 258.699 254.822 260.881 257.859C261.47 258.678 262.056 259.766 262.184 260.275C262.312 260.785 263.399 262.261 264.6 263.556C266.805 265.934 267.627 267.23 268.351 269.468C268.57 270.143 269.301 271.653 269.977 272.825C271.314 275.144 272.172 277.312 272.172 278.37C272.172 278.741 273.157 280.975 274.361 283.336C275.565 285.697 276.653 287.986 276.779 288.423C276.906 288.86 278.843 293.007 281.084 297.64C286.072 307.949 287.2 311.554 288.045 319.886C288.231 321.721 288.626 324.653 288.921 326.401C289.598 330.405 289.694 341.525 289.08 344.834C287.372 354.032 285.102 358.875 281.28 361.473C278.911 363.083 278.448 363.142 265.975 363.42C255.682 363.65 253.443 363.794 248.018 364.573C242.326 365.39 241.023 365.464 232.012 365.477L222.203 365.492L222.39 367.081C222.492 367.955 223.009 370.886 223.538 373.596C225.024 381.207 225.704 387.054 226.07 395.366C226.686 409.331 226.395 413.081 223.853 423.948C222.318 430.511 222.308 429.784 223.973 433.208C227.298 440.046 227.81 444.07 225.845 447.893C224.616 450.282 224.555 451.597 225.579 453.617C225.997 454.443 226.712 456.34 227.168 457.834L227.996 460.549L228.002 467.207C228.009 476.361 228.322 478.989 229.801 482.321L230.985 484.988L231.035 490.105C231.072 493.843 231.22 495.599 231.585 496.62C231.859 497.389 232.168 498.856 232.271 499.879C232.375 500.902 232.609 502.021 232.793 502.364C233.156 503.042 235.916 513.576 236.172 515.263C236.315 516.203 236.233 516.334 235.299 516.66L234.268 517.019L234.462 520.072C234.568 521.751 234.738 526.271 234.84 530.117C234.941 533.962 235.226 538.753 235.473 540.764C235.721 542.774 236.076 547.422 236.262 551.092C236.449 554.763 236.73 558.553 236.889 559.514C237.997 566.247 238.039 570.907 237.06 578.424C236.168 585.277 235 607.071 234.99 617.038C234.988 619.641 234.778 622.891 234.507 624.506C234.244 626.079 233.813 630.084 233.55 633.405C233.286 636.726 232.869 640.874 232.623 642.621C232.376 644.369 232.08 646.729 231.963 647.865C231.24 654.937 229.123 666.816 226.836 676.627C224.915 684.873 224.501 686.906 223.051 695.219C220.172 711.732 218.946 717.708 217.998 719.851C217.498 720.982 217.074 722.76 216.872 724.571C216.694 726.169 216.341 728.764 216.087 730.337C215.486 734.07 214.648 741.462 214.648 743.035C214.648 745.057 213.741 749.291 212.487 753.123L211.311 756.715L211.47 763.797L211.629 770.879L213.139 772.264C215.548 774.474 215.276 775.596 210.93 781.376C207.109 786.458 207.141 786.36 208.61 788.388C209.823 790.061 209.807 790.548 208.451 793.378C206.777 796.871 206.963 798.24 209.903 804.069C211.548 807.329 211.901 810.91 211.002 815.196C210.562 817.291 210.51 818.18 210.764 819.238C211.146 820.829 210.696 846.645 210.211 850.946C210.043 852.431 209.818 854.934 209.711 856.507C209.604 858.081 209.318 860.226 209.076 861.275C208.833 862.323 208.407 865.388 208.129 868.086C207.85 870.783 207.528 873.143 207.412 873.33C207.296 873.516 207.014 876.601 206.786 880.184C206.193 889.468 205.236 900.387 204.979 900.803C204.91 900.915 204.691 902.721 204.493 904.817C203.89 911.175 202.923 915.974 201.234 920.993L199.64 925.731L200.149 927.985C200.894 931.286 201.387 936.611 201.166 938.979C201.046 940.27 201.157 942.118 201.463 943.905C201.733 945.478 202.175 948.052 202.447 949.626C204.422 961.063 200.725 972.58 193.573 977.265C192.464 977.992 192.495 978.162 193.848 978.808C196.569 980.105 200.617 984.861 201.744 988.082C202.595 990.517 202.722 990.681 203.354 990.156C204.042 989.586 204.704 989.954 204.942 991.038C205.055 991.553 205.499 992.304 205.928 992.707C206.408 993.158 206.642 993.653 206.535 993.99C206.439 994.292 206.651 995.017 207.007 995.6C207.414 996.268 207.655 997.214 207.655 998.152C207.656 998.972 207.789 999.725 207.95 999.824C208.111 999.924 208.334 1000.4 208.445 1000.88C208.559 1001.37 209.087 1002.02 209.655 1002.38C210.621 1003 210.914 1003.55 211.31 1005.5C211.41 1005.99 212.237 1007.14 213.149 1008.06C214.874 1009.8 216.237 1011.79 216.237 1012.57C216.237 1012.82 216.845 1013.4 217.588 1013.87C218.331 1014.34 219.978 1015.76 221.249 1017.04C222.519 1018.32 224.092 1019.61 224.745 1019.92C225.397 1020.23 226.578 1021.14 227.37 1021.95C228.161 1022.75 229.449 1023.82 230.23 1024.33C233.027 1026.12 233.99 1027.03 234.377 1028.21C234.589 1028.86 235.627 1030.32 236.683 1031.46L238.603 1033.52L241.112 1034.24C242.491 1034.64 244.037 1035.18 244.545 1035.45C246.516 1036.47 250.398 1037.8 253.33 1038.47C258.847 1039.73 265.271 1042.88 266.673 1045.02C266.953 1045.45 267.604 1046.01 268.12 1046.28C268.893 1046.68 269.029 1046.92 268.894 1047.62C268.79 1048.15 268.923 1048.68 269.259 1049.05C270.29 1050.2 271.076 1055.83 270.679 1059.21L270.424 1061.38L268.994 1061.97C268.207 1062.3 266.706 1062.66 265.657 1062.79C264.021 1062.98 263.875 1063.05 264.628 1063.26C273.158 1065.66 268.121 1069.14 255.945 1069.26C252.022 1069.3 247.24 1069.35 245.317 1069.37C243.394 1069.39 239.318 1069.28 236.259 1069.13C233.201 1068.97 229.518 1068.84 228.076 1068.83C226.634 1068.82 225.454 1068.72 225.454 1068.61C225.454 1068.34 221.66 1068.49 220.846 1068.79C220.328 1068.98 220.299 1068.96 220.687 1068.67C221.048 1068.4 220.761 1068.36 219.495 1068.52C218.466 1068.65 217.827 1068.61 217.827 1068.41C217.827 1068.01 216.277 1068.3 215.395 1068.87C215.009 1069.12 214.663 1069.18 214.601 1069.01C214.395 1068.44 213.215 1068.45 213.257 1069.01C213.305 1069.66 212.651 1069.58 211.835 1068.85C211.431 1068.48 211.143 1068.4 211.006 1068.62C210.891 1068.81 211.02 1068.96 211.293 1068.96C211.565 1068.96 211.788 1069.1 211.788 1069.26C211.788 1069.43 211.538 1069.55 211.232 1069.54C210.638 1069.51 208.905 1069.83 208.766 1069.98C208.72 1070.03 209.167 1070.54 209.759 1071.1C210.35 1071.66 210.835 1072.04 210.835 1071.93C210.835 1071.83 211.014 1071.89 211.233 1072.08C211.82 1072.56 213.017 1071.65 212.486 1071.12C211.963 1070.6 212.01 1070.23 212.601 1070.23C212.874 1070.23 213.022 1070.36 212.929 1070.51C212.837 1070.65 213.115 1070.94 213.546 1071.13C214.329 1071.49 214.645 1072.46 213.979 1072.46C213.779 1072.46 213.716 1072.69 213.834 1073C214.009 1073.45 213.932 1073.44 213.337 1072.92C212.715 1072.37 212.657 1072.36 212.837 1072.86C213.072 1073.5 212.436 1073.62 211.852 1073.03C211.555 1072.73 211.47 1072.85 211.47 1073.55C211.47 1074.23 211.375 1074.36 211.073 1074.11C210.854 1073.93 210.534 1073.74 210.36 1073.68C210.187 1073.62 210.092 1073.36 210.15 1073.11C210.236 1072.74 210.166 1072.73 209.782 1073.05C209.403 1073.36 209.274 1073.36 209.143 1073.03C209.036 1072.76 208.969 1072.81 208.953 1073.16C208.939 1073.46 209.165 1073.83 209.456 1073.99C209.85 1074.21 209.65 1074.29 208.663 1074.31C207.937 1074.32 207.199 1074.41 207.024 1074.52C206.419 1074.9 205.401 1074.97 204.703 1074.69L204.002 1074.41L204.717 1074.39C205.154 1074.37 205.432 1074.17 205.432 1073.86C205.432 1073.5 205.267 1073.41 204.876 1073.57C204.226 1073.82 200.705 1074.36 200.256 1074.27C200.088 1074.23 199.886 1074.38 199.809 1074.59C199.721 1074.83 199.905 1074.93 200.3 1074.85C201.244 1074.67 202.408 1075.03 201.899 1075.34C201.397 1075.65 199.862 1075.38 198.65 1074.77C198.154 1074.52 197.546 1074.4 197.299 1074.49C197.053 1074.59 196.851 1074.53 196.851 1074.37C196.851 1074.2 196.613 1074.16 196.322 1074.27C195.95 1074.41 195.867 1074.36 196.04 1074.07C196.215 1073.79 196.067 1073.69 195.536 1073.74C195.123 1073.77 194.642 1073.76 194.468 1073.72C193.904 1073.57 193.521 1073.49 193.196 1073.44C193.022 1073.42 193.093 1073.25 193.355 1073.07C193.779 1072.77 193.779 1072.74 193.355 1072.87C193.093 1072.94 192.92 1073.24 192.972 1073.52C193.056 1074 192.871 1074.11 192.163 1074.02C192.032 1074 191.958 1073.86 191.998 1073.72C192.124 1073.26 190.933 1073.06 190.041 1073.4C189.558 1073.59 189.277 1073.88 189.397 1074.07C189.513 1074.26 189.313 1074.23 188.952 1074C188.592 1073.78 188.238 1073.3 188.168 1072.95L188.039 1072.3L187.996 1072.99C187.972 1073.38 187.674 1073.78 187.317 1073.89C186.459 1074.16 185.406 1073.79 185.599 1073.29C185.779 1072.82 183.936 1072.97 183.639 1073.45C183.544 1073.6 183.295 1073.73 183.087 1073.72C182.879 1073.71 183.066 1073.41 183.503 1073.04L184.298 1072.36L183.344 1072.61C182.82 1072.75 182.176 1072.86 181.914 1072.86C181.652 1072.86 181.243 1073.02 181.006 1073.21C180.689 1073.46 180.478 1073.42 180.211 1073.08C180.012 1072.83 179.359 1072.59 178.76 1072.57C178.006 1072.53 177.811 1072.6 178.125 1072.8C178.474 1073.02 178.421 1073.09 177.888 1073.09C177.51 1073.09 177.128 1073.27 177.039 1073.49C176.944 1073.73 176.869 1073.67 176.854 1073.33C176.826 1072.71 176.196 1072.56 176.189 1073.17C176.185 1073.46 176.12 1073.47 175.95 1073.21C175.822 1073 175.073 1072.83 174.287 1072.82C169.649 1072.77 169.519 1072.76 169.519 1072.33C169.519 1071.95 168.996 1071.66 167.692 1071.34C167.473 1071.29 167.295 1071.39 167.295 1071.57C167.295 1071.75 167.08 1071.81 166.818 1071.71C166.556 1071.61 166.341 1071.66 166.341 1071.83C166.341 1072 166.192 1072.14 166.01 1072.14C165.827 1072.14 165.72 1071.91 165.771 1071.62C165.823 1071.33 165.666 1071.03 165.423 1070.94C165.154 1070.85 165.068 1070.93 165.204 1071.15C165.326 1071.34 165.257 1071.51 165.052 1071.51C164.835 1071.51 164.748 1071.24 164.845 1070.87C164.951 1070.46 164.854 1070.23 164.574 1070.23C164.316 1070.23 164.212 1070.43 164.319 1070.71C164.435 1071.01 164.315 1071.19 163.992 1071.19C163.699 1071.19 163.481 1070.93 163.481 1070.57C163.481 1069.95 162.462 1069.41 161.924 1069.74C161.765 1069.84 161.704 1069.6 161.79 1069.2C161.906 1068.67 161.866 1068.6 161.637 1068.92C161.376 1069.29 161.163 1069.28 160.287 1068.84C159.715 1068.56 159.174 1068.4 159.086 1068.49C158.998 1068.57 159.118 1068.65 159.352 1068.65C159.642 1068.65 159.583 1068.83 159.167 1069.23C158.748 1069.64 158.48 1069.71 158.317 1069.47C158.152 1069.23 157.982 1069.27 157.765 1069.6C157.593 1069.86 157.45 1069.93 157.447 1069.74C157.445 1069.56 157.621 1069.22 157.84 1068.99C158.164 1068.65 158.11 1068.61 157.552 1068.78C157.066 1068.93 156.615 1068.75 156.005 1068.19C155.358 1067.59 155.006 1067.46 154.589 1067.69C154.202 1067.9 153.854 1067.84 153.434 1067.49C152.978 1067.12 152.957 1067.04 153.346 1067.16C153.75 1067.29 153.834 1067.12 153.748 1066.38C153.65 1065.54 153.7 1065.48 154.27 1065.79C154.931 1066.14 155.127 1066.74 154.582 1066.74C154.408 1066.74 154.265 1066.9 154.265 1067.09C154.265 1067.29 154.497 1067.35 154.795 1067.24C155.087 1067.13 155.449 1067.22 155.599 1067.44C155.767 1067.69 155.797 1067.52 155.677 1067.01C155.526 1066.35 155.614 1066.13 156.065 1066.01C156.575 1065.88 156.58 1065.85 156.102 1065.82C155.755 1065.8 155.622 1065.61 155.738 1065.31C155.838 1065.05 156.048 1064.91 156.205 1065.01C156.361 1065.11 156.489 1064.96 156.489 1064.69C156.489 1064.23 157.031 1064.05 157.999 1064.17C158.217 1064.2 158.396 1064.07 158.396 1063.87C158.396 1063.68 158.253 1063.61 158.078 1063.72C157.904 1063.83 157.761 1063.76 157.761 1063.58C157.761 1063.08 158.706 1063.17 158.903 1063.68C159.102 1064.2 160.303 1063.99 160.303 1063.43C160.303 1062.21 163.064 1062.29 164.032 1063.53C164.38 1063.98 164.446 1063.96 164.623 1063.33C164.794 1062.72 164.917 1062.67 165.487 1062.98C165.98 1063.24 166.183 1063.24 166.272 1062.97C166.358 1062.72 166.57 1062.71 167.008 1062.94C167.481 1063.19 167.665 1063.16 167.81 1062.78C167.92 1062.49 168.382 1062.29 168.918 1062.29C169.424 1062.29 169.837 1062.14 169.837 1061.95C169.837 1061.77 169.672 1061.72 169.469 1061.84C169.218 1062 169.157 1061.86 169.278 1061.4C169.475 1060.64 168.941 1060.35 167.416 1060.38C166.581 1060.4 163.693 1060 161.614 1059.57C160.699 1059.39 158.089 1058.95 155.854 1058.61C155.067 1058.49 153.351 1058.35 152.04 1058.3C135.94 1057.71 130.272 1053.04 134.157 1043.54C134.376 1043 134.451 1042 134.715 1036.07C135.024 1029.14 136.13 1016.82 136.662 1014.38L137.165 1012.08L136.34 1011.1C135.68 1010.32 135.514 1009.78 135.514 1008.45C135.514 1007.53 135.413 1006.68 135.291 1006.56C135.168 1006.43 135.041 1005.66 135.009 1004.83C134.976 1004.01 134.846 1002.6 134.719 1001.71C134.532 1000.39 134.6 999.915 135.08 999.181C135.755 998.151 135.839 993.11 135.225 990.464C134.723 988.296 134.812 985.31 135.506 981.055C136.605 974.318 137.258 972.156 139.948 966.349C142.741 960.318 142.781 960.118 142.034 955.982C141.718 954.234 141.571 951.019 141.563 945.694C141.553 938.629 141.485 937.666 140.785 934.73C139.553 929.563 138.382 919.159 138.377 913.336C138.375 911.731 138.163 909.415 137.905 908.19C137.648 906.964 137.286 903.988 137.101 901.574C136.916 899.161 136.556 895.328 136.301 893.055C135.61 886.889 135.599 835.155 136.287 826.792C136.963 818.574 137.357 815.076 137.768 813.617C137.993 812.819 138.042 811.298 137.904 809.446L137.685 806.532L138.665 804.085C139.256 802.609 139.65 801.047 139.657 800.151C139.663 799.334 139.875 797.808 140.128 796.759C140.777 794.071 140.737 793.77 139.46 791.822L138.322 790.085L138.486 787.727C138.62 785.823 138.876 784.941 139.818 783.141C141.295 780.322 141.268 778.42 139.716 776.036C136.877 771.677 136.952 771.871 136.836 768.595C136.772 766.794 136.936 764.231 137.233 762.359C137.884 758.266 137.866 757.146 137.107 754.727C135.497 749.592 135.401 747.994 135.323 725.198C135.232 698.63 134.522 687.231 132.187 674.879C130.415 665.502 129.582 661.467 128.645 657.717C128.055 655.358 127.394 652.303 127.177 650.929C126.76 648.294 126.404 648.472 126.318 651.361C126.294 652.148 126.071 653.65 125.821 654.698C125.571 655.747 125.092 657.749 124.755 659.148C123.135 665.871 122.527 669.434 121.855 676.15C121.672 677.986 121.382 680.703 121.211 682.189C121.041 683.675 120.754 687.397 120.575 690.461C120.395 693.525 120.109 696.886 119.938 697.93C119.767 698.973 119.624 700.828 119.62 702.052C119.615 703.275 119.413 705.582 119.17 707.179C118.927 708.774 118.569 712.207 118.375 714.806C116.625 738.189 116.42 739.939 114.356 749.088C113.253 753.98 112.529 757.73 112.149 760.529C111.918 762.228 110.882 766.434 109.8 770.059C109.436 771.281 108.645 772.997 108.043 773.873C107.027 775.351 106.489 776.949 105.334 781.902C104.942 783.583 105.139 785.314 106.011 787.861C108.07 793.871 107.638 798.563 104.649 802.667C103.579 804.137 102.364 806.055 101.95 806.929L101.197 808.518L101.192 813.762C101.189 816.646 101.046 824.369 100.875 830.924C100.59 841.78 100.335 845.235 99.2759 852.535C99.111 853.671 98.8275 856.102 98.6457 857.938C98.1951 862.486 97.7994 865.284 96.8936 870.332C96.47 872.692 95.9065 877.197 95.6411 880.343C95.0831 886.963 94.757 889.662 93.7216 896.234C93.3084 898.856 92.805 903.287 92.6032 906.082C92.4011 908.877 92.1503 911.301 92.0457 911.47C91.9415 911.639 91.7553 916.432 91.6316 922.12C91.4613 929.986 91.2881 932.894 90.9086 934.259C90.2291 936.704 87.9708 942.982 87.21 944.541C86.8686 945.24 86.1374 947.229 85.585 948.962L84.5804 952.111L85.1089 953.788C85.6689 955.564 89.4061 963.334 90.3595 964.704C90.6703 965.151 91.4743 966.589 92.1465 967.9C92.8187 969.211 93.7508 970.855 94.2177 971.554C95.4441 973.391 96.6178 975.843 96.8482 977.049C97.2404 979.102 94.7433 992.515 93.6621 994.166C93.3373 994.661 93.2251 995.303 93.3399 996.009C93.4622 996.764 93.2382 997.837 92.601 999.545C92.0979 1000.89 91.4553 1003.01 91.1727 1004.25C90.8905 1005.5 90.24 1007.24 89.7277 1008.14L88.7958 1009.77V1015.63C88.7958 1022.58 88.233 1026.19 86.2718 1031.83C84.5626 1036.74 84.5588 1036.69 87.0809 1044.45C87.5033 1045.75 87.8475 1047.59 87.8535 1048.58C87.8599 1049.57 88.0693 1050.73 88.3191 1051.17C88.5689 1051.6 88.7885 1052.46 88.807 1053.07C88.8254 1053.68 88.9481 1054.46 89.08 1054.8C89.2116 1055.13 89.2014 1056.13 89.0571 1057.02C88.744 1058.95 89.0005 1060.62 89.5271 1060.1C90.0264 1059.6 90.4844 1059.66 90.2762 1060.21C90.1624 1060.5 90.252 1060.61 90.5279 1060.5C90.7634 1060.41 91.0367 1060.47 91.1352 1060.63C91.2337 1060.79 90.8193 1061.07 90.2139 1061.26C89.3991 1061.51 89.1086 1061.5 89.0936 1061.23C89.0568 1060.56 88.444 1062.42 87.9842 1064.6C87.5233 1066.79 87.8573 1069.6 88.5778 1069.6C88.7351 1069.6 88.7901 1069.79 88.7005 1070.02C88.6105 1070.26 88.6541 1070.64 88.7971 1070.87C88.9405 1071.1 88.937 1071.61 88.7892 1072C88.561 1072.6 88.6128 1072.68 89.135 1072.55C89.4817 1072.45 89.7493 1072.55 89.7493 1072.75C89.7493 1072.96 89.5703 1073.09 89.352 1073.05C89.1334 1073 88.6671 1073.07 88.3153 1073.19C83.8231 1074.72 65.9183 1074.09 53.519 1071.96C52.0332 1071.7 50.0488 1071.36 49.1091 1071.2C48.1693 1071.04 47.0252 1070.76 46.5666 1070.58C44.5831 1069.79 37.5535 1068.22 34.9271 1067.98C30.3046 1067.56 28.9278 1067.16 27.465 1065.85L26.1597 1064.67L25.5336 1061.52C25.1891 1059.79 24.7699 1058.21 24.6015 1058C24.4019 1057.76 24.4254 1057.5 24.6695 1057.26C24.9352 1056.99 24.9403 1056.89 24.687 1056.89C24.2605 1056.89 24.4197 1050.2 24.8668 1049.33C25.0229 1049.03 25.2489 1048.24 25.3693 1047.57L25.5883 1046.36L24.9679 1046.69C24.12 1047.14 23.2054 1046.19 24.0402 1045.73C25.95 1044.66 27.7767 1041.96 28.2563 1039.5C28.3653 1038.95 28.8433 1037.95 29.3187 1037.28C30.2442 1035.98 30.575 1035.05 31.6162 1030.83C32.0792 1028.95 32.2721 1027.19 32.2508 1025.04C32.2025 1020.19 32.7473 1016.4 34.001 1012.85C34.6163 1011.11 35.3095 1008.98 35.5408 1008.1C35.7722 1007.23 36.1424 1006.13 36.3633 1005.65C36.7091 1004.91 36.6703 1004.57 36.0862 1003.21C35.427 1001.68 35.1582 1000.7 35.1095 999.645C35.0914 999.251 34.6004 999.083 32.9793 998.917C26.9342 998.297 26.3348 992.174 32.1386 990.333C32.6411 990.173 32.7025 989.696 32.7025 985.939C32.7025 980.076 33.9883 976.623 37.5382 972.954L39.2589 971.177L39.8738 968.362C40.7027 964.57 40.6782 964.348 39.2179 962.424C34.2429 955.868 32.4288 948.574 31.6073 931.828C31.3282 926.139 30.815 920.857 30.2998 918.375C30.1307 917.559 29.8574 914.603 29.6925 911.806C29.5279 909.01 29.2536 904.934 29.0829 902.749C28.9037 900.452 28.8643 894.829 28.9895 889.42C29.2412 878.576 28.9644 868.797 28.2652 863.817C26.0071 847.736 25.9296 838.325 27.9162 821.548C28.1854 819.276 28.4073 816.196 28.4088 814.703C28.4114 812.552 28.5515 811.728 29.0848 810.73C29.4547 810.038 30.0074 808.971 30.3128 808.359C31.0679 806.847 32.8226 799.484 33.5008 794.982C33.8059 792.956 34.5254 789.825 35.0997 788.025L36.1437 784.753L35.5824 783.287C35.2735 782.482 34.8432 781.179 34.6261 780.392C34.4091 779.605 33.9804 778.477 33.6737 777.883C32.5191 775.652 33.0959 773.944 35.4038 772.763C37.9902 771.44 38.9401 769.536 37.9428 767.673C37.2119 766.307 37.1902 763.374 37.9015 762.076C38.2721 761.4 38.7068 759.989 38.868 758.94L39.1607 757.033L38.2794 756.08C35.0368 752.572 34.9608 750.209 38.0239 748.128L39.1426 747.368L38.9738 745.844C38.881 745.006 38.4688 743.423 38.0578 742.327C37.2462 740.162 36.9761 731.196 37.6244 727.953C37.7817 727.167 38.0096 724.937 38.131 722.998L38.3515 719.473L37.1394 717.306C36.4726 716.113 35.4566 714.439 34.8813 713.584C33.0749 710.9 32.7784 708.488 33.6397 703.482C34.3363 699.433 35.1232 694.388 35.4553 691.842L35.7509 689.577L34.5794 685.962C33.5392 682.752 33.3797 681.814 33.1547 677.581C32.7972 670.866 32.3986 668.335 31.2459 665.465C30.3497 663.234 30.2134 662.46 29.9912 658.353C29.8539 655.819 29.4379 652.315 29.0664 650.567C28.6949 648.819 28.1864 645.601 27.9366 643.416C27.6868 641.231 27.1176 636.583 26.6717 633.087C26.2258 629.591 25.716 624.657 25.539 622.123C25.362 619.588 25.0849 616.585 24.9234 615.449C24.762 614.313 24.5344 611.738 24.4178 609.728C24.2853 607.445 23.9671 605.358 23.5705 604.167C23.2212 603.118 22.8332 600.945 22.7083 599.338C22.4604 596.147 22.4296 596.084 19.869 593.628L18.1589 591.987L18.2996 590.289C18.4029 589.044 18.7426 588.119 19.5737 586.82C20.1973 585.845 20.7998 584.757 20.9127 584.401C21.1567 583.632 19.9399 570.454 19.5366 569.498C19.3827 569.134 19.2404 566.774 19.22 564.254C19.1997 561.735 19.0993 559.018 18.9966 558.217C18.894 557.416 18.9604 555.485 19.1441 553.926C19.3281 552.368 19.6379 549.233 19.8328 546.961C20.4121 540.21 22.7639 521.566 23.5816 517.24C23.9195 515.452 23.7831 515.021 22.8793 515.021C22.4874 515.021 21.82 514.652 21.396 514.201L20.6257 513.381L20.6362 509.672C20.6422 507.632 20.974 503.175 21.3738 499.766C22.0352 494.128 22.0695 493.11 21.7555 488.484C21.5655 485.687 21.3363 482.112 21.2464 480.539C20.7906 472.579 20.4941 470.177 19.8083 468.896C17.6027 464.775 16.8663 457.399 17.6863 447.645C18.448 438.584 18.4363 439.175 18.0921 426.988L17.8449 418.248L18.551 414.116C18.9394 411.844 19.3281 409.87 19.4148 409.729C19.5016 409.588 19.8337 407.228 20.1534 404.485C20.7608 399.27 21.4266 394.989 22.215 391.234C23.0731 387.147 24.6062 380.455 25.2412 378.023C25.5867 376.7 25.8695 374.964 25.8695 374.164C25.8695 373.364 26.1406 371.8 26.4721 370.689C29.0909 361.912 29.7281 354.29 28.0434 351.892C25.4793 348.242 24.2227 338.888 25.2416 331.037L25.5473 328.682L23.8216 324.84C19.1221 314.377 17.6065 310.918 17.6065 310.657C17.6065 310.5 16.8558 309.89 15.938 309.303C12.9538 307.393 11.6177 305.48 10.6096 301.673C10.2769 300.416 9.58562 298.206 9.07363 296.762C8.52318 295.209 7.99086 292.808 7.77062 290.883C7.56595 289.093 7.24303 287.056 7.05329 286.357C6.86324 285.658 6.53212 284.299 6.31696 283.338C6.10181 282.376 5.56882 280.374 5.13247 278.888C4.38276 276.334 3.97058 273.711 2.82106 264.174C2.55124 261.938 2.19624 256.646 2.03162 252.416C1.67535 243.264 1.18942 234.799 0.768641 230.422C0.60052 228.675 0.323394 224.027 0.15273 220.094C-0.63226 202.004 1.08039 198.482 18.006 183.384C23.471 178.509 24.1953 177.989 27.0543 176.889C27.9681 176.538 29.2644 175.854 29.935 175.369C31.4891 174.246 33.5583 173.345 37.1315 172.237C38.6932 171.752 40.8857 170.87 42.0035 170.277C44.3683 169.022 46.572 168.299 48.0472 168.294C48.6212 168.292 49.7657 167.949 50.5904 167.531C51.4151 167.113 53.0032 166.4 54.119 165.947C55.2351 165.493 56.6259 164.758 57.2097 164.312L58.2712 163.503L58.0805 162.111C57.92 160.942 58.0427 160.448 58.8474 159.023C60.22 156.591 62.4145 148.353 62.4195 145.613C62.4265 141.573 64.2835 140.212 67.502 141.887C72.4156 144.444 80.3151 145.742 85.4325 144.833C88.3163 144.321 92.5593 130.141 90.8276 126.803C90.5117 126.194 90.5301 126.034 90.9354 125.879C91.3654 125.714 91.3571 125.616 90.8664 125.074C90.5591 124.734 90.3909 124.24 90.4923 123.976C90.5937 123.712 90.4612 122.979 90.1977 122.348C89.9339 121.718 89.7528 120.963 89.7947 120.672C89.9628 119.507 85.8609 109.562 84.9907 109.025C84.5451 108.749 82.1237 105.089 82.0986 104.653C82.0859 104.433 81.8136 103.823 81.4939 103.299C81.1738 102.774 80.3834 101.295 79.7376 100.012L78.5627 97.6794L78.7308 93.4227C78.904 89.0433 78.6815 88.1019 77.7672 89.3458C77.3817 89.8705 77.3881 89.9643 77.8155 90.0533C78.0863 90.1099 78.3081 90.2948 78.3081 90.4645C78.3081 90.6342 78.1016 90.7309 77.8492 90.6797C77.5966 90.6282 77.177 90.8723 76.9167 91.2219L76.4436 91.8575L75.1338 90.5863C71.0007 86.5749 69.5871 82.9925 71.2572 80.7631C72.934 78.5251 72.5774 76.9954 69.2426 72.1247C66.613 68.284 66.6582 66.9123 69.5763 61.9834C71.774 58.2714 71.7918 58.2212 72.592 53.5614C74.4448 42.7734 77.6738 33.3328 81.1226 28.6204C87.2796 20.2079 98.9956 7.96369 102.68 6.09148C103.454 5.69771 103.716 5.33511 103.792 4.54885C103.976 2.64994 110.155 1.83856 111.963 3.4756L112.631 4.08071L116.524 3.24582C121.745 2.12681 124.251 1.81854 132.495 1.28145C136.34 1.03069 140.059 0.676651 140.758 0.494546C142.564 0.0238698 150.282 -0.178573 152.345 0.190722ZM31.5901 993.79C31.5901 994.057 33.557 996.185 33.8037 996.185C34.2193 996.185 33.7655 994.456 33.2405 994.039C32.7609 993.659 31.5901 993.482 31.5901 993.79ZM171.281 1061.99C171.382 1062.16 171.312 1062.29 171.127 1062.29C170.942 1062.29 170.791 1062.14 170.791 1061.95C170.791 1061.44 170.252 1061.89 170.08 1062.54C169.889 1063.27 171.156 1063.33 171.484 1062.61C171.815 1061.88 171.781 1061.28 171.421 1061.5C171.244 1061.61 171.18 1061.83 171.281 1061.99ZM155.059 1064.51C155.465 1065.17 155.508 1066.15 155.125 1066.01C154.914 1065.94 154.788 1065.62 154.845 1065.31C154.902 1065 154.759 1064.62 154.527 1064.47C154.238 1064.29 154.225 1064.2 154.484 1064.2C154.692 1064.2 154.951 1064.34 155.059 1064.51ZM159.072 1065.82C159.7 1066.21 160.061 1066.17 159.892 1065.71C159.812 1065.49 159.586 1065.34 159.389 1065.39C159.193 1065.43 159.02 1065.29 159.007 1065.07C158.989 1064.79 158.931 1064.8 158.809 1065.11C158.714 1065.35 158.833 1065.66 159.072 1065.82ZM157.125 1065.64C157.125 1065.89 157.318 1066.01 157.582 1065.91C157.833 1065.81 157.961 1065.53 157.866 1065.28C157.66 1064.75 157.125 1065 157.125 1065.64ZM156.206 1067.59C156.007 1067.73 156.855 1068.65 157.175 1068.65C157.335 1068.65 157.312 1068.36 157.125 1068.01C156.706 1067.23 157.064 1067.17 157.62 1067.93C157.843 1068.24 158.122 1068.39 158.238 1068.27C158.662 1067.85 157.317 1066.82 156.807 1067.18C156.545 1067.36 156.274 1067.55 156.206 1067.59ZM207.026 1070.63C207.023 1070.76 207.164 1070.87 207.339 1070.87C207.514 1070.87 207.654 1070.55 207.652 1070.15C207.647 1069.47 207.04 1069.93 207.026 1070.63ZM211.142 1070.57C210.77 1071.27 210.04 1071.26 210.04 1070.56C210.04 1070.33 210.367 1070.09 210.766 1070.03C211.41 1069.93 211.453 1069.99 211.142 1070.57ZM172.56 1072.49C173.413 1072.83 173.651 1072.82 173.651 1072.48C173.651 1072.14 172.671 1071.86 172.242 1072.09C172.079 1072.18 172.222 1072.36 172.56 1072.49ZM217.428 1072.41C217.629 1072.53 217.693 1072.79 217.571 1072.99C217.414 1073.24 217.236 1073.22 216.956 1072.92C216.513 1072.44 216.865 1072.06 217.428 1072.41ZM206.683 1072.76C206.925 1072.91 207.35 1072.95 207.628 1072.84C208.015 1072.69 207.948 1072.6 207.339 1072.45C206.406 1072.21 206.059 1072.38 206.683 1072.76ZM203.843 1072.78C204.459 1073.18 204.796 1073.18 204.796 1072.78C204.796 1072.6 204.474 1072.46 204.081 1072.46C203.503 1072.47 203.457 1072.53 203.843 1072.78Z" fill="black"/>
<path d="M188.321 59.0061C179.321 59.0061 171.873 66.0079 171.873 74.8284C171.874 83.6486 179.321 90.6497 188.321 90.6497C197.32 90.6494 204.767 83.6485 204.767 74.8284C204.767 66.0081 197.32 59.0064 188.321 59.0061Z" fill="white" stroke="black" stroke-width="3.98877" stroke-miterlimit="10" stroke-linecap="round"/>
<path d="M152.453 59.0059C143.454 59.0059 136.006 66.0077 136.006 74.8281C136.006 83.6484 143.454 90.6494 152.453 90.6494C161.452 90.6492 168.899 83.6482 168.899 74.8281C168.899 66.0078 161.452 59.0061 152.453 59.0059Z" fill="white" stroke="black" stroke-width="3.98877" stroke-miterlimit="10" stroke-linecap="round"/>
</svg>
