<svg width="203" height="753" viewBox="0 0 203 753" fill="none" xmlns="http://www.w3.org/2000/svg">
<path fill-rule="evenodd" clip-rule="evenodd" d="M106.642 0.133505C110.882 0.892339 115.133 4.10008 118.414 9.01726C119.19 10.1797 119.989 11.2246 120.19 11.3392C121.198 11.9153 126.85 21.5811 126.584 22.2741C126.402 22.7481 126.86 22.6625 129.145 21.7953C142.969 16.5493 157.909 16.5631 157.317 21.8213C157.009 24.5503 152.727 27.0827 134.226 35.4788C132.812 36.1202 131.421 36.8227 131.132 37.0403L130.607 37.4361L131.075 39.1886C131.814 41.9561 133.319 47.3458 133.681 48.5211C133.785 48.8602 133.568 49.2935 132.861 50.1611C130.392 53.1905 130.026 54.0599 130.955 54.6806L131.455 55.0149L131.032 55.4863C130.799 55.7455 130.473 55.9577 130.309 55.9577C129.923 55.9577 129.932 56.0772 130.369 56.7442C130.69 57.2347 130.691 57.2925 130.382 57.2925C130.191 57.2925 129.974 57.1924 129.898 57.0701C129.823 56.9477 129.651 56.8476 129.517 56.8476C129.377 56.8476 129.419 57.0142 129.615 57.2369C129.803 57.4509 130.025 57.8516 130.109 58.1268C130.395 59.0654 132.268 62.2562 133.72 64.2778C137.098 68.9825 137.011 71.6826 133.456 72.4205C131.388 72.8499 131.229 73.3631 132.278 76.2022C132.828 77.6896 132.978 79.8736 132.575 80.5219C132.394 80.8113 132.238 82.1416 132.158 84.0664C132.087 85.7609 131.938 87.2626 131.827 87.4034C131.716 87.544 131.555 88.6603 131.469 89.8839C131.384 91.1075 131.168 92.9595 130.99 93.9995C130.813 95.0396 130.637 96.0907 130.599 96.3354C130.561 96.5802 130.478 96.9305 130.413 97.1141C129.954 98.4113 129.787 99.1425 129.787 99.8527C129.787 101.661 127.969 104.88 126.94 104.894C126.659 104.897 126.197 105.151 125.913 105.457C125.63 105.762 125.248 106.013 125.064 106.013C124.88 106.013 124.476 106.213 124.165 106.458C123.854 106.702 123.437 106.903 123.239 106.903C123.041 106.903 122.778 107.169 122.654 107.495C122.495 107.915 122.36 108.018 122.191 107.85C121.93 107.588 120.934 108.081 120.038 108.916C119.649 109.278 119.462 109.328 119.229 109.135C118.995 108.941 118.851 108.99 118.596 109.356C118.399 109.636 118.207 109.734 118.123 109.597C118.027 109.442 117.792 109.439 117.405 109.586C116.991 109.743 116.732 109.725 116.481 109.521C116.181 109.278 116.157 109.3 116.307 109.683C116.486 110.142 117.463 114.097 117.669 115.196C117.973 116.815 122.426 118.947 124.769 118.596C125.891 118.428 127.543 118.994 128.897 120.012C130.852 121.482 132.536 121.994 136.243 122.249C138.935 122.434 139.895 122.782 142.019 124.346C142.799 124.92 144.081 125.75 144.868 126.19L146.297 126.99L149.211 126.86C152.395 126.718 153.032 126.881 153.622 127.983C153.78 128.28 154.777 129.313 155.836 130.281C156.896 131.248 157.894 132.365 158.053 132.763C158.213 133.162 158.626 133.817 158.972 134.22C159.318 134.623 159.894 135.524 160.253 136.222C160.612 136.92 161.52 138.193 162.272 139.049C169.033 146.754 175.305 158.358 177.63 167.465C178.157 169.528 178.306 169.848 179.71 171.936L180.732 173.455V175.336C180.732 177.395 181.09 178.375 182.617 180.501C183.029 181.075 183.439 181.836 183.529 182.192C183.618 182.549 184.379 183.583 185.22 184.489C186.763 186.154 187.339 187.061 187.846 188.628C187.999 189.1 188.511 190.157 188.984 190.977C189.919 192.601 190.52 194.119 190.52 194.859C190.52 195.119 191.21 196.683 192.053 198.335C192.895 199.988 193.657 201.59 193.745 201.896C193.834 202.202 195.19 205.105 196.759 208.348C200.25 215.564 201.04 218.087 201.632 223.92C201.762 225.205 202.038 227.257 202.245 228.481C202.719 231.284 202.786 239.067 202.356 241.384C201.161 247.822 199.571 251.213 196.896 253.031C195.238 254.158 194.914 254.199 186.182 254.394C178.978 254.555 177.41 254.656 173.613 255.201C169.628 255.773 168.716 255.825 162.409 255.834L155.542 255.844L155.673 256.956C155.744 257.568 156.106 259.62 156.476 261.517C157.517 266.845 157.993 270.938 158.249 276.756C158.68 286.532 158.477 289.157 156.697 296.764C155.622 301.358 155.616 300.849 156.781 303.246C159.108 308.032 159.467 310.849 158.091 313.525C157.231 315.197 157.189 316.118 157.905 317.532C158.198 318.11 158.699 319.438 159.018 320.484L159.597 322.385L159.601 327.045C159.607 333.453 159.826 335.292 160.861 337.625L161.69 339.492L161.725 343.074C161.751 345.69 161.854 346.919 162.109 347.634C162.301 348.172 162.518 349.199 162.59 349.915C162.662 350.632 162.827 351.414 162.955 351.655C163.209 352.13 165.141 359.504 165.321 360.684C165.421 361.342 165.363 361.434 164.709 361.662L163.988 361.914L164.123 364.051C164.198 365.226 164.317 368.39 164.388 371.082C164.458 373.774 164.658 377.127 164.831 378.534C165.005 379.942 165.253 383.195 165.383 385.765C165.514 388.334 165.711 390.987 165.822 391.66C166.598 396.373 166.627 399.635 165.942 404.897C165.318 409.694 164.5 424.949 164.493 431.926C164.491 433.749 164.344 436.023 164.155 437.154C163.971 438.256 163.669 441.059 163.485 443.384C163.3 445.708 163.008 448.611 162.836 449.835C162.663 451.059 162.456 452.71 162.374 453.506C161.868 458.456 160.386 466.771 158.785 473.639C157.44 479.411 157.15 480.834 156.136 486.653C154.12 498.213 153.262 502.396 152.599 503.896C152.249 504.688 151.952 505.932 151.81 507.2C151.686 508.318 151.439 510.135 151.261 511.236C150.84 513.849 150.254 519.023 150.254 520.124C150.254 521.54 149.619 524.504 148.741 527.186L147.918 529.701L148.029 534.658L148.14 539.615L149.197 540.585C150.884 542.132 150.693 542.917 147.651 546.963C144.976 550.521 144.999 550.452 146.027 551.871C146.876 553.043 146.865 553.384 145.916 555.364C144.744 557.81 144.874 558.768 146.932 562.848C148.083 565.13 148.331 567.637 147.701 570.637C147.394 572.104 147.357 572.726 147.535 573.467C147.802 574.58 147.487 592.652 147.147 595.662C147.03 596.702 146.873 598.454 146.798 599.555C146.723 600.656 146.522 602.158 146.353 602.892C146.183 603.626 145.885 605.772 145.69 607.66C145.495 609.548 145.27 611.2 145.189 611.331C145.107 611.461 144.91 613.621 144.75 616.129C144.335 622.627 143.665 630.271 143.485 630.562C143.437 630.64 143.284 631.905 143.145 633.372C142.723 637.822 142.046 641.182 140.864 644.695L139.748 648.012L140.104 649.59C140.626 651.9 140.971 655.627 140.816 657.285C140.732 658.189 140.81 659.482 141.024 660.734C141.213 661.835 141.523 663.637 141.713 664.738C143.095 672.744 140.507 680.806 135.501 684.086C134.725 684.595 134.746 684.714 135.694 685.165C137.598 686.074 140.432 689.403 141.221 691.657C141.817 693.362 141.906 693.476 142.348 693.109C142.829 692.71 143.292 692.968 143.459 693.727C143.538 694.087 143.849 694.612 144.15 694.895C144.486 695.211 144.649 695.557 144.574 695.793C144.507 696.005 144.656 696.512 144.905 696.92C145.19 697.388 145.358 698.05 145.359 698.707C145.359 699.281 145.452 699.807 145.565 699.877C145.678 699.947 145.834 700.278 145.912 700.613C145.991 700.957 146.361 701.417 146.758 701.669C147.435 702.097 147.64 702.482 147.917 703.848C147.987 704.191 148.566 705 149.205 705.644C150.412 706.863 151.366 708.256 151.366 708.799C151.366 708.972 151.792 709.382 152.312 709.709C152.832 710.036 153.985 711.035 154.874 711.928C155.763 712.821 156.864 713.728 157.321 713.943C157.778 714.158 158.605 714.796 159.159 715.362C159.713 715.927 160.614 716.677 161.161 717.029C163.119 718.287 163.793 718.919 164.064 719.75C164.212 720.205 164.939 721.226 165.678 722.02L167.022 723.464L168.778 723.97C169.744 724.249 170.826 724.628 171.182 724.812C172.561 725.526 175.278 726.461 177.331 726.928C181.193 727.808 185.69 730.016 186.671 731.513C186.867 731.812 187.323 732.21 187.684 732.396C188.225 732.676 188.321 732.841 188.226 733.331C188.153 733.708 188.246 734.076 188.481 734.338C189.203 735.14 189.753 739.079 189.475 741.45L189.297 742.968L188.296 743.381C187.745 743.608 186.694 743.865 185.96 743.952C184.815 744.087 184.712 744.134 185.24 744.282C191.21 745.962 187.685 748.399 179.161 748.484C176.416 748.511 173.068 748.545 171.722 748.559C170.376 748.573 167.523 748.496 165.382 748.388C163.24 748.28 160.663 748.186 159.653 748.18C158.644 748.173 157.818 748.105 157.818 748.027C157.818 747.841 155.162 747.944 154.592 748.153C154.23 748.286 154.209 748.27 154.481 748.068C154.734 747.879 154.533 747.854 153.647 747.964C152.926 748.053 152.479 748.025 152.479 747.889C152.479 747.604 151.394 747.808 150.777 748.208C150.506 748.384 150.264 748.426 150.221 748.306C150.077 747.911 149.251 747.912 149.28 748.306C149.313 748.761 148.855 748.709 148.284 748.193C148.002 747.937 147.8 747.883 147.704 748.037C147.624 748.168 147.714 748.274 147.905 748.274C148.096 748.274 148.252 748.368 148.252 748.483C148.252 748.598 148.077 748.685 147.862 748.676C147.446 748.66 146.234 748.879 146.136 748.987C146.104 749.023 146.417 749.375 146.831 749.769C147.245 750.163 147.584 750.426 147.584 750.354C147.584 750.281 147.71 750.326 147.863 750.453C148.274 750.794 149.112 750.158 148.74 749.786C148.374 749.42 148.407 749.164 148.821 749.164C149.012 749.164 149.115 749.249 149.05 749.354C148.986 749.458 149.18 749.657 149.482 749.794C150.03 750.044 150.252 750.721 149.785 750.721C149.645 750.721 149.601 750.884 149.683 751.098C149.806 751.417 149.753 751.409 149.336 751.043C148.9 750.66 148.86 750.655 148.986 750.999C149.15 751.452 148.705 751.531 148.296 751.122C148.089 750.914 148.029 750.994 148.029 751.483C148.029 751.96 147.962 752.055 147.751 751.88C147.598 751.753 147.374 751.615 147.252 751.574C147.131 751.534 147.064 751.355 147.105 751.178C147.165 750.917 147.116 750.908 146.847 751.132C146.582 751.352 146.492 751.349 146.4 751.12C146.325 750.933 146.278 750.964 146.267 751.211C146.257 751.419 146.416 751.682 146.619 751.796C146.895 751.95 146.755 752.006 146.064 752.015C145.556 752.022 145.039 752.09 144.917 752.166C144.493 752.428 143.781 752.479 143.292 752.282L142.801 752.084L143.302 752.07C143.607 752.062 143.802 751.917 143.802 751.699C143.802 751.447 143.687 751.387 143.413 751.496C142.958 751.677 140.493 752.053 140.179 751.989C140.061 751.964 139.92 752.066 139.866 752.213C139.804 752.381 139.933 752.449 140.21 752.396C140.871 752.269 141.686 752.519 141.329 752.74C140.978 752.957 139.903 752.769 139.055 752.342C138.707 752.167 138.282 752.078 138.109 752.144C137.937 752.211 137.796 752.171 137.796 752.056C137.796 751.942 137.629 751.911 137.426 751.99C137.165 752.09 137.107 752.049 137.228 751.852C137.35 751.655 137.247 751.586 136.875 751.616C136.586 751.641 136.25 751.634 136.127 751.602C135.733 751.498 135.465 751.441 135.237 751.411C135.115 751.395 135.165 751.276 135.349 751.146C135.645 750.936 135.645 750.921 135.349 751.006C135.165 751.058 135.044 751.266 135.08 751.467C135.139 751.798 135.01 751.877 134.514 751.811C134.423 751.799 134.37 751.705 134.399 751.602C134.487 751.279 133.653 751.145 133.029 751.383C132.691 751.511 132.494 751.715 132.578 751.85C132.659 751.981 132.519 751.96 132.267 751.802C132.014 751.645 131.767 751.312 131.718 751.063L131.627 750.61L131.597 751.096C131.58 751.368 131.372 751.643 131.122 751.722C130.521 751.913 129.784 751.656 129.919 751.303C130.045 750.974 128.755 751.079 128.548 751.414C128.481 751.523 128.307 751.608 128.161 751.604C128.015 751.6 128.146 751.385 128.452 751.126L129.008 750.655L128.341 750.827C127.974 750.922 127.523 751.001 127.34 751.002C127.156 751.003 126.87 751.112 126.704 751.244C126.482 751.42 126.334 751.397 126.148 751.158C126.008 750.979 125.551 750.816 125.132 750.796C124.604 750.77 124.468 750.82 124.687 750.959C124.932 751.114 124.894 751.16 124.522 751.163C124.257 751.165 123.989 751.291 123.928 751.444C123.861 751.61 123.808 751.566 123.798 751.333C123.778 750.895 123.337 750.789 123.332 751.222C123.33 751.424 123.284 751.43 123.165 751.244C123.075 751.103 122.551 750.983 122.001 750.977C118.755 750.942 118.664 750.933 118.664 750.632C118.664 750.363 118.297 750.165 117.384 749.94C117.231 749.902 117.106 749.973 117.106 750.097C117.106 750.222 116.956 750.266 116.773 750.196C116.589 750.125 116.439 750.165 116.439 750.283C116.439 750.402 116.334 750.499 116.207 750.499C116.079 750.499 116.004 750.334 116.04 750.133C116.076 749.931 115.966 749.718 115.796 749.659C115.608 749.593 115.548 749.649 115.643 749.803C115.728 749.941 115.68 750.054 115.536 750.054C115.384 750.054 115.324 749.867 115.391 749.609C115.466 749.323 115.398 749.164 115.202 749.164C115.021 749.164 114.948 749.301 115.024 749.498C115.105 749.709 115.021 749.831 114.794 749.831C114.589 749.831 114.437 749.648 114.437 749.401C114.437 748.967 113.723 748.584 113.347 748.816C113.235 748.885 113.193 748.717 113.253 748.441C113.334 748.072 113.306 748.021 113.146 748.247C112.963 748.505 112.814 748.496 112.201 748.19C111.8 747.991 111.422 747.878 111.36 747.94C111.299 748.001 111.382 748.052 111.546 748.052C111.75 748.052 111.708 748.184 111.417 748.464C111.124 748.746 110.936 748.799 110.822 748.631C110.706 748.461 110.587 748.488 110.436 748.719C110.315 748.903 110.215 748.948 110.213 748.819C110.211 748.691 110.335 748.454 110.488 748.294C110.715 748.056 110.677 748.029 110.286 748.146C109.946 748.249 109.631 748.128 109.203 747.732C108.75 747.313 108.504 747.225 108.213 747.382C107.941 747.527 107.698 747.486 107.404 747.246C107.084 746.985 107.07 746.929 107.342 747.013C107.625 747.101 107.684 746.987 107.624 746.469C107.555 745.878 107.59 745.838 107.989 746.052C108.451 746.299 108.589 746.717 108.208 746.717C108.085 746.717 107.985 746.828 107.985 746.963C107.985 747.102 108.148 747.147 108.357 747.067C108.561 746.989 108.814 747.053 108.92 747.21C109.037 747.385 109.058 747.266 108.974 746.904C108.868 746.447 108.93 746.288 109.245 746.207C109.603 746.114 109.606 746.098 109.271 746.075C109.028 746.059 108.935 745.928 109.017 745.717C109.087 745.534 109.234 745.44 109.343 745.508C109.453 745.575 109.542 745.475 109.542 745.284C109.542 744.963 109.921 744.833 110.599 744.92C110.752 744.94 110.877 744.846 110.877 744.711C110.877 744.576 110.777 744.528 110.655 744.603C110.532 744.679 110.432 744.635 110.432 744.505C110.432 744.158 111.094 744.219 111.232 744.579C111.371 744.941 112.212 744.791 112.212 744.404C112.212 743.55 114.144 743.601 114.823 744.473C115.066 744.786 115.112 744.77 115.236 744.331C115.356 743.906 115.442 743.871 115.841 744.084C116.186 744.269 116.328 744.268 116.391 744.081C116.451 743.901 116.599 743.895 116.905 744.059C117.237 744.236 117.366 744.21 117.467 743.946C117.544 743.746 117.868 743.602 118.242 743.602C118.596 743.602 118.886 743.496 118.886 743.367C118.886 743.237 118.77 743.203 118.628 743.29C118.453 743.399 118.41 743.3 118.495 742.977C118.632 742.451 118.258 742.248 117.191 742.269C116.607 742.281 114.585 741.999 113.13 741.702C112.489 741.572 110.662 741.265 109.098 741.025C108.547 740.94 107.346 740.844 106.428 740.81C95.1578 740.4 91.1905 737.125 93.9102 730.477C94.0633 730.103 94.116 729.397 94.3006 725.249C94.5164 720.397 95.2908 711.773 95.6635 710.068L96.0156 708.458L95.4376 707.771C94.9758 707.222 94.8597 706.849 94.8597 705.914C94.8597 705.271 94.7894 704.674 94.7035 704.589C94.6176 704.503 94.5286 703.961 94.506 703.384C94.4833 702.807 94.3921 701.823 94.3033 701.198C94.1723 700.276 94.2203 699.94 94.5562 699.427C95.0283 698.705 95.087 695.177 94.6577 693.325C94.306 691.807 94.3682 689.717 94.8543 686.739C95.6236 682.023 96.0808 680.509 97.9633 676.444C99.9186 672.222 99.9468 672.083 99.4236 669.187C99.2024 667.963 99.0997 665.714 99.0943 661.986C99.0872 657.041 99.0394 656.366 98.5495 654.311C97.6872 650.694 96.8677 643.412 96.8639 639.336C96.8628 638.212 96.7142 636.591 96.5337 635.733C96.3533 634.875 96.0999 632.791 95.9705 631.102C95.841 629.413 95.5891 626.729 95.4107 625.139C94.9269 620.822 94.9191 584.608 95.4007 578.755C95.8741 573.002 96.1495 570.553 96.4374 569.532C96.5949 568.973 96.6296 567.909 96.5326 566.612L96.3796 564.573L97.0657 562.859C97.4792 561.827 97.7549 560.733 97.7598 560.106C97.764 559.534 97.9126 558.466 98.0899 557.731C98.5442 555.85 98.5157 555.639 97.6223 554.276L96.8252 553.06L96.9404 551.409C97.0336 550.076 97.2129 549.459 97.8727 548.199C98.9066 546.225 98.8874 544.894 97.8009 543.225C95.8136 540.174 95.8661 540.31 95.7851 538.016C95.7406 536.756 95.855 534.962 96.0632 533.652C96.5188 530.786 96.5059 530.003 95.9749 528.309C94.8481 524.714 94.7805 523.596 94.726 507.638C94.6626 489.041 94.1651 481.061 92.5309 472.415C91.2902 465.852 90.7071 463.027 90.0513 460.402C89.6384 458.75 89.1761 456.612 89.0239 455.65C88.7318 453.806 88.4831 453.931 88.4226 455.953C88.4059 456.504 88.2495 457.555 88.0746 458.289C87.9 459.023 87.5641 460.424 87.3283 461.403C86.1941 466.11 85.769 468.604 85.2987 473.305C85.1701 474.59 84.9672 476.492 84.848 477.532C84.7285 478.572 84.5281 481.178 84.4024 483.323C84.2767 485.468 84.076 487.82 83.9564 488.551C83.8369 489.281 83.7366 490.58 83.7337 491.436C83.7308 492.293 83.5893 493.908 83.4191 495.025C83.2489 496.142 82.9984 498.545 82.8623 500.364C81.6374 516.732 81.4936 517.957 80.0492 524.361C79.2768 527.786 78.7704 530.411 78.5044 532.37C78.3429 533.559 77.6171 536.504 76.8599 539.041C76.6049 539.896 76.0514 541.098 75.6301 541.711C74.9191 542.746 74.542 543.864 73.734 547.331C73.4597 548.508 73.5972 549.719 74.2078 551.502C75.6488 555.71 75.3467 558.994 73.2546 561.867C72.5051 562.896 71.6546 564.239 71.3647 564.85L70.8377 565.963L70.8342 569.633C70.8322 571.652 70.7323 577.058 70.6121 581.647C70.4132 589.246 70.2344 591.664 69.4931 596.774C69.3777 597.57 69.1792 599.272 69.052 600.556C68.7365 603.74 68.4595 605.699 67.8255 609.232C67.529 610.884 67.1345 614.038 66.9488 616.24C66.5581 620.874 66.3299 622.763 65.6051 627.364C65.3159 629.199 64.9635 632.301 64.8222 634.257C64.6807 636.214 64.5052 637.911 64.432 638.029C64.359 638.147 64.2287 641.502 64.1421 645.484C64.0229 650.99 63.9016 653.026 63.636 653.981C63.1604 655.693 61.5795 660.087 61.047 661.178C60.808 661.668 60.2961 663.06 59.9095 664.273L59.2063 666.478L59.5762 667.651C59.9682 668.895 62.5842 674.334 63.2516 675.293C63.4692 675.606 64.032 676.612 64.5025 677.53C64.973 678.447 65.6255 679.599 65.9523 680.088C66.8109 681.374 67.6324 683.09 67.7937 683.935C68.0682 685.371 66.3203 694.761 65.5635 695.916C65.3361 696.263 65.2576 696.712 65.3379 697.206C65.4235 697.735 65.2667 698.486 64.8206 699.681C64.4685 700.625 64.0187 702.109 63.8209 702.978C63.6233 703.847 63.168 705.071 62.8093 705.698L62.1571 706.838V710.94C62.1571 715.806 61.7631 718.336 60.3902 722.282C59.1938 725.721 59.1911 725.68 60.9566 731.117C61.2523 732.027 61.4932 733.315 61.4975 734.009C61.5019 734.697 61.6485 735.51 61.8233 735.816C61.9982 736.122 62.1519 736.723 62.1649 737.151C62.1777 737.579 62.2636 738.122 62.356 738.357C62.4481 738.592 62.4409 739.293 62.3399 739.914C62.1208 741.262 62.3003 742.436 62.669 742.067C63.0184 741.718 63.339 741.765 63.1933 742.145C63.1136 742.352 63.1764 742.426 63.3695 742.352C63.5343 742.289 63.7257 742.328 63.7946 742.44C63.8636 742.552 63.5735 742.749 63.1497 742.879C62.5793 743.054 62.376 743.049 62.3655 742.858C62.3397 742.389 61.9108 743.692 61.5889 745.22C61.2663 746.75 61.5001 748.719 62.0044 748.719C62.1146 748.719 62.153 748.853 62.0903 749.017C62.0273 749.181 62.0578 749.448 62.158 749.611C62.2583 749.773 62.2558 750.128 62.1524 750.4C61.9927 750.82 62.0289 750.877 62.3944 750.782C62.6371 750.718 62.8245 750.782 62.8245 750.927C62.8245 751.069 62.6992 751.162 62.5464 751.132C62.3933 751.103 62.067 751.148 61.8207 751.232C58.6761 752.307 46.1428 751.864 37.4633 750.372C36.4232 750.193 35.0341 749.955 34.3763 749.843C33.7185 749.731 32.9176 749.535 32.5966 749.408C31.2082 748.856 26.2874 747.756 24.4489 747.586C21.2132 747.289 20.2495 747.013 19.2254 746.092L18.3118 745.271L17.8735 743.065C17.6323 741.852 17.3389 740.744 17.221 740.602C17.0813 740.433 17.0978 740.253 17.2686 740.082C17.4546 739.896 17.4582 739.82 17.2809 739.82C16.9823 739.82 17.0938 735.138 17.4068 734.532C17.516 734.32 17.6742 733.766 17.7585 733.299L17.9118 732.45L17.4775 732.682C16.884 733 16.2437 732.335 16.8281 732.008C18.1649 731.26 19.4437 729.373 19.7794 727.653C19.8557 727.263 20.1903 726.562 20.5231 726.096C21.1709 725.189 21.4025 724.538 22.1313 721.578C22.4554 720.262 22.5905 719.031 22.5755 717.527C22.5417 714.134 22.9231 711.478 23.8007 708.998C24.2314 707.78 24.7166 706.284 24.8785 705.672C25.0405 705.06 25.2997 704.288 25.4543 703.957C25.6963 703.438 25.6692 703.201 25.2603 702.25C24.7989 701.178 24.6107 700.49 24.5766 699.751C24.5639 699.476 24.2202 699.358 23.0854 699.242C18.8539 698.808 18.4343 694.522 22.497 693.233C22.8487 693.121 22.8917 692.787 22.8917 690.157C22.8917 686.053 23.7918 683.636 26.2767 681.068L27.4812 679.824L27.9116 677.854C28.4918 675.199 28.4747 675.044 27.4525 673.697C23.97 669.107 22.7001 664.002 22.125 652.28C21.9297 648.297 21.5704 644.6 21.2098 642.862C21.0915 642.291 20.9002 640.222 20.7847 638.264C20.6695 636.307 20.4775 633.454 20.358 631.924C20.2325 630.317 20.205 626.38 20.2926 622.594C20.4688 615.003 20.275 608.158 19.7856 604.672C18.205 593.415 18.1507 586.828 19.5413 575.084C19.7298 573.493 19.885 571.337 19.8862 570.292C19.8879 568.787 19.986 568.21 20.3593 567.511C20.6183 567.027 21.0052 566.28 21.2189 565.851C21.7475 564.793 22.9758 559.639 23.4505 556.487C23.6641 555.069 24.1677 552.878 24.5697 551.618L25.3006 549.327L24.9077 548.301C24.6914 547.737 24.3902 546.825 24.2383 546.274C24.0863 545.724 23.7862 544.934 23.5715 544.518C22.7633 542.956 23.1671 541.761 24.7827 540.934C26.5931 540.008 27.258 538.675 26.5599 537.371C26.0483 536.415 26.0331 534.362 26.531 533.453C26.7904 532.98 27.0947 531.992 27.2075 531.258L27.4124 529.923L26.7955 529.256C24.5257 526.8 24.4725 525.146 26.6167 523.69L27.3997 523.157L27.2816 522.091C27.2167 521.504 26.9281 520.396 26.6405 519.629C26.0723 518.113 25.8832 511.837 26.337 509.567C26.4472 509.017 26.6067 507.456 26.6917 506.099L26.846 503.631L25.9976 502.114C25.5308 501.279 24.8196 500.107 24.4169 499.509C23.1524 497.63 22.9448 495.941 23.5477 492.437C24.0354 489.603 24.5862 486.072 24.8187 484.289L25.0256 482.704L24.2056 480.174C23.4774 477.926 23.3658 477.27 23.2082 474.306C22.958 469.606 22.679 467.835 21.8721 465.826C21.2448 464.264 21.1493 463.722 20.9938 460.847C20.8977 459.073 20.6065 456.62 20.3464 455.397C20.0864 454.173 19.7304 451.921 19.5556 450.391C19.3807 448.862 18.9823 445.608 18.6702 443.161C18.358 440.714 18.0012 437.26 17.8773 435.486C17.7534 433.712 17.5594 431.609 17.4464 430.814C17.3333 430.019 17.1741 428.217 17.0924 426.81C16.9996 425.212 16.777 423.75 16.4993 422.917C16.2548 422.182 15.9832 420.661 15.8958 419.537C15.7222 417.303 15.7007 417.259 13.9082 415.54L12.7112 414.391L12.8097 413.203C12.882 412.331 13.1198 411.683 13.7016 410.774C14.138 410.091 14.5598 409.33 14.6388 409.081C14.8097 408.542 13.9579 399.318 13.6756 398.649C13.5679 398.394 13.4682 396.742 13.454 394.978C13.4397 393.214 13.3694 391.312 13.2976 390.752C13.2257 390.191 13.2722 388.84 13.4008 387.748C13.5296 386.657 13.7465 384.463 13.8829 382.873C14.2885 378.147 15.9347 365.096 16.5071 362.068C16.7436 360.817 16.6481 360.515 16.0154 360.515C15.7411 360.515 15.274 360.256 14.9772 359.941L14.4379 359.367L14.4453 356.771C14.4495 355.342 14.6818 352.222 14.9616 349.836C15.4246 345.889 15.4486 345.177 15.2288 341.939C15.0958 339.981 14.9354 337.478 14.8724 336.377C14.5534 330.805 14.3458 329.124 13.8658 328.227C12.3218 325.342 11.8064 320.179 12.3803 313.352C12.9136 307.009 12.9054 307.423 12.6644 298.891L12.4914 292.774L12.9857 289.881C13.2576 288.291 13.5296 286.909 13.5903 286.81C13.6511 286.712 13.8836 285.06 14.1074 283.14C14.5325 279.489 14.9986 276.493 15.5505 273.864C16.1512 271.003 17.2243 266.318 17.6688 264.616C17.9106 263.69 18.1086 262.474 18.1086 261.915C18.1086 261.355 18.2984 260.26 18.5304 259.483C20.3636 253.338 20.8096 248.003 19.6303 246.324C17.8354 243.769 16.9558 237.221 17.6691 231.726L17.8831 230.078L16.6751 227.388C13.3855 220.064 12.3245 217.643 12.3245 217.46C12.3245 217.35 11.799 216.923 11.1566 216.512C9.0676 215.175 8.13235 213.836 7.42668 211.171C7.19376 210.291 6.7099 208.744 6.3515 207.733C5.96619 206.646 5.59357 204.965 5.43939 203.618C5.29613 202.365 5.07008 200.939 4.93727 200.45C4.80423 199.96 4.57245 199.009 4.42183 198.336C4.27122 197.663 3.89813 196.262 3.5927 195.222C3.06789 193.434 2.77936 191.598 1.9747 184.922C1.78583 183.356 1.53734 179.652 1.42209 176.691C1.17271 170.285 0.83255 164.36 0.53801 161.296C0.420319 160.072 0.226334 156.819 0.106873 154.066C-0.442627 141.403 0.756226 138.937 12.6041 128.369C16.4297 124.956 16.9367 124.593 18.938 123.823C19.5776 123.576 20.485 123.098 20.9544 122.758C22.0423 121.972 23.4908 121.342 25.992 120.566C27.0852 120.226 28.62 119.609 29.4024 119.194C31.0578 118.315 32.6003 117.809 33.633 117.806C34.0348 117.805 34.8359 117.564 35.4132 117.272C35.9905 116.979 37.1022 116.48 37.8833 116.163C38.6646 115.845 39.6381 115.33 40.0468 115.019L40.7898 114.452L40.6563 113.478C40.544 112.659 40.6298 112.314 41.1931 111.316C42.154 109.614 43.6901 103.847 43.6936 101.929C43.6985 99.1011 44.9984 98.1481 47.2514 99.3207C50.6909 101.111 56.2205 102.019 59.8027 101.383C61.8214 101.024 64.7915 91.0986 63.5793 88.762C63.3581 88.3356 63.3711 88.2241 63.6547 88.1151C63.9557 87.9996 63.9499 87.9311 63.6064 87.5516C63.3913 87.314 63.2736 86.9683 63.3446 86.7832C63.4156 86.5981 63.3228 86.0853 63.1384 85.6437C62.9537 85.2023 62.8269 84.6742 62.8563 84.4704C62.9739 83.6551 60.1026 76.6936 59.4935 76.3172C59.1816 76.1244 57.4866 73.5624 57.469 73.257C57.4601 73.1028 57.2695 72.6761 57.0457 72.309C56.8217 71.942 56.2684 70.9068 55.8163 70.0087L54.9939 68.3756L55.1115 65.3959C55.2328 62.3303 55.077 61.6714 54.437 62.5421C54.1672 62.9094 54.1716 62.975 54.4708 63.0373C54.6604 63.0769 54.8157 63.2064 54.8157 63.3252C54.8157 63.444 54.6711 63.5116 54.4944 63.4758C54.3176 63.4397 54.0239 63.6106 53.8417 63.8553L53.5105 64.3002L52.5936 63.4104C49.7005 60.6024 48.7109 58.0948 49.88 56.5342C51.0537 54.9675 50.8041 53.8968 48.4698 50.4873C46.6291 47.7988 46.6607 46.8386 48.7034 43.3884C50.2417 40.79 50.2542 40.7548 50.8144 37.493C52.1114 29.9414 54.3716 23.333 56.7858 20.0343C61.0957 14.1456 69.2969 5.57459 71.8757 4.26403C72.4179 3.9884 72.601 3.73458 72.6544 3.18419C72.7834 1.85496 77.1086 1.28699 78.3738 2.43292L78.8414 2.8565L81.5668 2.27207C85.2215 1.48877 86.9757 1.27298 92.7462 0.897013C95.4381 0.721486 98.0409 0.473655 98.5304 0.346182C99.7944 0.0167089 105.198 -0.125001 106.642 0.133505ZM22.1131 695.653C22.1131 695.84 23.4899 697.329 23.6625 697.329C23.9535 697.329 23.6358 696.119 23.2683 695.828C22.9326 695.561 22.1131 695.437 22.1131 695.653ZM119.897 743.395C119.967 743.509 119.919 743.602 119.789 743.602C119.66 743.602 119.553 743.496 119.553 743.367C119.553 743.007 119.176 743.32 119.056 743.78C118.922 744.291 119.809 744.331 120.038 743.825C120.271 743.313 120.247 742.893 119.995 743.048C119.87 743.125 119.826 743.281 119.897 743.395ZM108.541 745.159C108.825 745.619 108.855 746.302 108.587 746.209C108.44 746.157 108.352 745.935 108.392 745.716C108.432 745.497 108.332 745.234 108.169 745.131C107.967 745.003 107.957 744.943 108.139 744.94C108.285 744.939 108.466 745.037 108.541 745.159ZM111.351 746.072C111.79 746.35 112.043 746.316 111.925 745.994C111.869 745.841 111.71 745.741 111.572 745.771C111.435 745.802 111.314 745.702 111.305 745.549C111.292 745.352 111.252 745.36 111.166 745.575C111.1 745.742 111.183 745.965 111.351 746.072ZM109.987 745.945C109.987 746.126 110.122 746.206 110.307 746.135C110.483 746.068 110.573 745.871 110.506 745.699C110.362 745.323 109.987 745.5 109.987 745.945ZM109.344 747.316C109.205 747.408 109.799 748.052 110.023 748.052C110.134 748.052 110.118 747.851 109.987 747.607C109.694 747.059 109.945 747.018 110.334 747.551C110.49 747.765 110.685 747.873 110.766 747.792C111.064 747.494 110.122 746.772 109.765 747.023C109.581 747.153 109.392 747.284 109.344 747.316ZM144.918 749.442C144.916 749.534 145.015 749.609 145.137 749.609C145.26 749.609 145.358 749.384 145.356 749.108C145.353 748.631 144.928 748.954 144.918 749.442ZM147.799 749.4C147.539 749.887 147.028 749.881 147.028 749.39C147.028 749.229 147.257 749.062 147.536 749.02C147.987 748.951 148.017 748.994 147.799 749.4ZM120.792 750.744C121.389 750.978 121.556 750.976 121.556 750.738C121.556 750.495 120.869 750.305 120.569 750.465C120.455 750.526 120.555 750.651 120.792 750.744ZM152.199 750.686C152.34 750.773 152.385 750.956 152.3 751.092C152.19 751.268 152.065 751.253 151.869 751.042C151.559 750.708 151.805 750.443 152.199 750.686ZM144.678 750.935C144.847 751.04 145.145 751.064 145.339 750.989C145.611 750.885 145.564 750.82 145.137 750.712C144.484 750.547 144.241 750.665 144.678 750.935ZM142.69 750.944C143.121 751.223 143.357 751.223 143.357 750.944C143.357 750.821 143.132 750.723 142.857 750.725C142.452 750.727 142.42 750.769 142.69 750.944Z" fill="black"/>
</svg>
