<svg width="103" height="87" viewBox="0 0 103 87" fill="none" xmlns="http://www.w3.org/2000/svg">
<path d="M17.9037 26.6226H18.0341C17.1161 16.9373 20.96 9.52081 37.222 9.52081H37.462C39.4699 4.93635 43.7154 2 51.3822 2C59.0491 2 63.2945 4.93635 65.3025 9.52081H65.5424C81.8045 9.52081 85.6431 16.9373 84.7304 26.6226H84.8608C126.491 33.2202 73.2041 84.9584 73.2041 84.9584H29.5552C29.5552 84.9584 -23.732 33.2202 17.8985 26.6226H17.9037Z" fill="black" stroke="white" stroke-width="4" stroke-miterlimit="10" stroke-linecap="round"/>
<path d="M84.8619 26.627C126.49 33.2242 73.2059 84.9589 73.2059 84.9589L84.8619 26.627Z" fill="black"/>
<path d="M84.8619 26.627C126.49 33.2242 73.2059 84.9589 73.2059 84.9589" stroke="white" stroke-width="4" stroke-miterlimit="10" stroke-linecap="round"/>
<path d="M65.55 9.52136C94.7134 9.52136 83.9336 33.3809 77.3833 51.3994L65.55 9.52136Z" fill="black"/>
<path d="M65.55 9.52136C94.7134 9.52136 83.9336 33.3809 77.3833 51.3994" stroke="white" stroke-width="4" stroke-miterlimit="10" stroke-linecap="round"/>
<path d="M41.9877 43.879C35.4375 25.8657 29.5234 2.00101 51.3907 2.00101C73.2528 2.00101 67.344 25.8605 60.7937 43.879" fill="black"/>
<path d="M41.9877 43.879C35.4375 25.8657 29.5234 2.00101 51.3907 2.00101C73.2528 2.00101 67.344 25.8605 60.7937 43.879" stroke="white" stroke-width="4" stroke-miterlimit="10" stroke-linecap="round"/>
<path d="M17.9143 26.627C-23.7134 33.2242 29.5702 84.9589 29.5702 84.9589L17.9143 26.627Z" fill="black"/>
<path d="M17.9143 26.627C-23.7134 33.2242 29.5702 84.9589 29.5702 84.9589" stroke="white" stroke-width="4" stroke-miterlimit="10" stroke-linecap="round"/>
<path d="M37.2265 9.52136C8.0631 9.52136 18.8429 33.3809 25.3932 51.3994L37.2265 9.52136Z" fill="black"/>
<path d="M37.2265 9.52136C8.0631 9.52136 18.8429 33.3809 25.3932 51.3994" stroke="white" stroke-width="4" stroke-miterlimit="10" stroke-linecap="round"/>
</svg>
