<svg width="111" height="86" viewBox="0 0 111 86" fill="none" xmlns="http://www.w3.org/2000/svg">
<path d="M79.9796 48.4999C79.9796 36.0979 68.3594 31.3147 62.7428 31.3147C53.9873 31.3147 42.5429 37.289 42.5429 51.5391C42.5429 70.2552 60.0904 82.8927 75.5316 82.8927C90.9728 82.8927 108.054 70.8002 108.054 45.9179C108.054 21.3034 88.2522 2.63818 62.6631 2.63818C23.5913 2.63818 3 32.8185 3 72.1258L50.1735 71.1928" fill="black"/>
<path d="M79.9796 48.4999C79.9796 36.0979 68.3594 31.3147 62.7428 31.3147C53.9873 31.3147 42.5429 37.289 42.5429 51.5391C42.5429 70.2552 60.0904 82.8927 75.5316 82.8927C90.9728 82.8927 108.054 70.8002 108.054 45.9179C108.054 21.3034 88.2522 2.63818 62.6631 2.63818C23.5913 2.63818 3 32.8185 3 72.1258L50.1735 71.1928" stroke="white" stroke-width="4.99051" stroke-miterlimit="10" stroke-linecap="round"/>
</svg>
