<svg width="111" height="100" viewBox="0 0 111 100" fill="none" xmlns="http://www.w3.org/2000/svg">
<path d="M79.9796 62.4999C79.9796 50.0979 68.3594 45.3147 62.7428 45.3147C53.9873 45.3147 42.5429 51.289 42.5429 65.5391C42.5429 84.2552 60.0904 96.8927 75.5316 96.8927C90.9728 96.8927 108.054 84.8002 108.054 59.9179C108.054 35.3034 88.2522 16.6382 62.6631 16.6382C23.5913 16.6382 3 46.8185 3 86.1258L50.1735 85.1928" fill="black"/>
<path d="M79.9796 62.4999C79.9796 50.0979 68.3594 45.3147 62.7428 45.3147C53.9873 45.3147 42.5429 51.289 42.5429 65.5391C42.5429 84.2552 60.0904 96.8927 75.5316 96.8927C90.9728 96.8927 108.054 84.8002 108.054 59.9179C108.054 35.3034 88.2522 16.6382 62.6631 16.6382C23.5913 16.6382 3 46.8185 3 86.1258L50.1735 85.1928" stroke="white" stroke-width="4.99051" stroke-miterlimit="10" stroke-linecap="round"/>
<path d="M41.1002 2.04297C32.7523 2.04297 25.8434 8.5378 25.8434 16.7197C25.8436 24.9014 32.7524 31.3955 41.1002 31.3955C49.4479 31.3954 56.3558 24.9014 56.3561 16.7197C56.3561 8.53784 49.4481 2.04303 41.1002 2.04297Z" fill="white" stroke="black" stroke-width="3.70001" stroke-miterlimit="10" stroke-linecap="round"/>
<path d="M74.3715 2.04297C66.0235 2.04297 59.1146 8.5378 59.1146 16.7197C59.1149 24.9014 66.0237 31.3955 74.3715 31.3955C82.7192 31.3955 89.6271 24.9014 89.6273 16.7197C89.6273 8.53783 82.7194 2.04303 74.3715 2.04297Z" fill="white" stroke="black" stroke-width="3.70001" stroke-miterlimit="10" stroke-linecap="round"/>
</svg>
