<svg width="133" height="137" viewBox="0 0 133 137" fill="none" xmlns="http://www.w3.org/2000/svg">
<path d="M70.2433 14.7177C66.8484 5.39636 53.5664 5.63874 50.444 15.0253L46.5713 26.669C45.8294 28.8993 43.7421 30.4292 41.3676 30.4643L17.2665 30.828C6.99587 30.9824 3.06342 44.2302 11.4866 49.8913L11.8975 50.1549L29.5287 60.9797C31.5496 62.2201 32.5423 64.6032 32.0033 66.9011L19.2739 121.131L19.1598 121.669C17.0397 132.893 32.1929 138.776 38.3441 129.041L57.8951 98.1003L57.8965 98.102L59.2315 95.99C61.1379 92.9754 65.3641 92.5065 67.8762 95.0179L92.9567 120.09C101.23 128.362 114.979 118.842 109.832 108.179L90.1397 67.3939L90.0357 67.1653C89.0187 64.7879 89.806 61.9959 91.9729 60.489L91.9727 60.488L113.981 45.1898C122.918 38.9762 117.612 25.0433 106.83 26.261L80.0707 29.2803C77.5121 29.5689 75.1078 28.0771 74.2403 25.6945L70.2435 14.7186L70.2433 14.7177Z" fill="black" stroke="white" stroke-width="4.92956" stroke-miterlimit="10" stroke-linecap="round"/>
<path d="M48.4404 37.3223C41.6826 37.3225 36.0898 42.5806 36.0898 49.2041C36.0899 55.8276 41.6826 61.0857 48.4404 61.0859C55.1984 61.0859 60.792 55.8277 60.792 49.2041C60.792 42.5805 55.1985 37.3223 48.4404 37.3223Z" fill="white" stroke="black" stroke-width="2.99532" stroke-miterlimit="10" stroke-linecap="round"/>
<path d="M75.3754 37.3223C68.6176 37.3225 63.0248 42.5806 63.0248 49.2041C63.0248 55.8276 68.6176 61.0857 75.3754 61.0859C82.1334 61.0859 87.7269 55.8277 87.7269 49.2041C87.7269 42.5805 82.1334 37.3223 75.3754 37.3223Z" fill="white" stroke="black" stroke-width="2.99532" stroke-miterlimit="10" stroke-linecap="round"/>
</svg>
